<?xml version="1.0" encoding="UTF-8"?>
<!DOCTYPE svg PUBLIC "-//W3C//DTD SVG 1.1//EN" "http://www.w3.org/Graphics/SVG/1.1/DTD/svg11.dtd">
<!-- Creator: CorelDRAW 2021 (64 Bit) -->
<svg xmlns="http://www.w3.org/2000/svg" xml:space="preserve" width="40mm" height="40mm" version="1.1" style="shape-rendering:geometricPrecision; text-rendering:geometricPrecision; image-rendering:optimizeQuality; fill-rule:evenodd; clip-rule:evenodd"
viewBox="0 0 4000 4000"
 xmlns:xlink="http://www.w3.org/1999/xlink"
 xmlns:xodm="http://www.corel.com/coreldraw/odm/2003">
 <defs>
  <style type="text/css">
   <![CDATA[
    .fil6 {fill:black}
    .fil3 {fill:#241D1C}
    .fil5 {fill:#331905}
    .fil2 {fill:#885D3A}
    .fil4 {fill:#A77C4F}
    .fil1 {fill:#C1986A}
    .fil0 {fill:#D8E156}
   ]]>
  </style>
 </defs>
 <g id="Camada_x0020_1">
  <metadata id="CorelCorpID_0Corel-Layer"/>
  <circle class="fil0" cx="1993.4" cy="2006.6" r="2000"/>
  <g id="_1781020499600">
   <path class="fil1" d="M1086.26 1491.82l22.84 112.44c8.25,62.4 11.56,74.86 25.04,119.85 12.61,42.11 37.42,141.08 66.08,174.36 20.05,36.14 8.54,22.79 43.26,60.5 -38.15,-119.06 24.43,-256.62 98.08,-298.31 62.84,-35.57 261.27,-51.7 330.67,-38.53 93.06,14.87 228.85,75.47 251.38,132.45 54.73,73.4 195.51,229.34 94.63,365.05 -66.21,89.06 -228.01,139.56 -374.03,114.16 -12.76,19.93 -43.09,142.73 -48.31,175.83 164.93,-100.49 157.07,204.6 -5.08,99.82 -1.54,-1 -4.44,-3.8 -6.79,-5.53l11.81 -58c-22.36,16.57 -24.74,12.52 -36.17,72.46 -104.95,-50.35 -415.46,86.06 -233.15,245.23 51.78,45.2 170.04,62.71 246.79,46.5 96.29,-20.33 137.25,-66.04 203.75,-110.57l0 144.93c-44.48,23.76 -45.57,16.55 -72.46,36.17 34.13,0.13 -9.89,83.09 -96.62,58.85 -112.73,92.58 69.09,185.56 156.98,172.06 69.1,-10.62 24.36,10.69 48.33,-25.48l-57.93 0c-6.78,-88.3 73.17,-141.27 135.21,-35.99l-11.48 22.34c-1.74,2.66 -5.99,10.69 -8.85,14.46 54.1,-8.54 81.19,-24.94 119.5,-53.89 15.17,-11.46 26.89,-21.26 38.4,-33.17 32.53,-33.62 34.6,-23.53 51.89,-66.01 -64.03,6.26 -83.09,-22.53 -80.72,-88.92 57.74,-39.18 33.64,-45.35 111.35,-22.26l-1.43 32.13c47.54,0.89 126.83,30.03 310.16,4.03 96.62,-13.71 181.61,-37.8 251.38,-74.71 25.3,108.61 4.69,-3.56 -76.83,128.5 -32.39,52.47 -70.64,118.25 -5.91,161.35 -12.02,-121.01 197.07,-75.72 116.69,24.44 73.91,-24.58 119.4,-39.34 174.83,-92.74l55.09 -70.89c-139.45,29.6 -162.81,-141.93 -9.59,-121.64 30.49,41.18 35.43,36.44 28.49,98.33 58.44,-38.01 60.03,-182.47 54.93,-247.63 -7.64,-45.99 -31.16,-136.61 -45.18,-170.19 -137.38,60.64 -164.88,-120.86 -2.67,-71.95 -0.77,-48.46 -8.59,-88.23 -24.16,-120.67 110.12,-73.73 158.48,-319.41 169.08,-446.85 -27.18,19.92 -35.75,50.64 -122.55,118.1l-46.53 50.92c29.23,-18.4 6.34,-6.88 18.03,3.66 2.43,38.69 -2.99,32.93 -28.05,55.72 -35.79,32.56 -28.34,22.97 -67.95,48.06 3.69,194.32 -209.98,207.5 -394.09,195.31 -95.04,-6.3 -92.22,-62.4 -113.71,-151.12 -72.44,-299.18 -62.32,-1312.72 78.54,-1323.11l-42.8 -66.53c-38.69,-49.09 -112.24,-102.69 -170.17,-131.07 -109.04,-53.41 -197.69,-55.96 -353.97,-55.96 3.28,2.97 7.02,7.06 9.66,9.13l33.48 19.52c-9.22,85.58 -119.95,213.92 -159.92,254.62l-255.44 275 -403.81 335.44z"/>
   <path class="fil2" d="M1086.26 1491.82l403.81 -335.44 255.44 -275c39.97,-40.7 150.7,-169.04 159.92,-254.62l-33.48 -19.52c-2.64,-2.07 -6.38,-6.16 -9.66,-9.13 -194.21,-82.45 -890.21,295.74 -1056.26,405.76 -68.25,45.21 -158.6,106.7 -203.47,170.92 -68.39,97.86 -20.28,198.68 31.84,276.13 115.37,171.46 175.13,256.84 445.71,46.08 1.23,-0.95 4.27,-3.27 6.15,-5.18z"/>
   <path class="fil2" d="M2863.63 2130.59c10.54,-68.33 9.78,-38.51 -11.64,-107.38 59.38,-153.75 -228.65,-1089.47 -382.15,-1164.25 -50.29,-24.5 -10.07,-9.17 -40.61,-7.29 -140.86,10.39 -170.66,1031.08 -98.22,1330.26 21.49,88.72 38.35,164.5 133.39,170.8 184.11,12.19 402.92,-27.82 399.23,-222.14z"/>
   <path class="fil2" d="M1227.71 1915.53c2.97,9.94 -2.27,11.4 20.76,55.68 45.11,86.69 156.38,169.05 246.4,213.41 44.48,21.92 92.6,38.08 149.34,49.17 146.02,25.4 307.82,-25.1 374.03,-114.16 100.88,-135.71 -39.9,-291.65 -94.63,-365.05 -0.22,39.55 18.77,52.29 -97.16,78.38 -222.76,50.13 -273.71,-147.4 -265.11,-209.17l112.24 3.71c-70.72,-24.73 -269.18,-2.41 -332.02,33.16 -73.65,41.69 -146.74,132.3 -113.85,254.87z"/>
   <path class="fil3" d="M1923.61 1754.58c-22.53,-56.98 -155.21,-115.87 -267.75,-137.13l-99.96 -1.73c-8.6,61.77 47.79,267.37 270.55,217.24 115.93,-26.09 96.94,-38.83 97.16,-78.38z"/>
   <path class="fil4" d="M2208.71 2584.3c-72.75,38.12 -41.01,164.3 55.16,130.76 98.03,-34.19 31.31,-176.08 -55.16,-130.76z"/>
   <path class="fil4" d="M2924.39 2941.13c16.85,-9.58 14.14,-7.25 21.42,-16.77 10.81,-16.58 9.17,-8.02 12.54,-31.6 6.94,-61.89 -6.94,-68.56 -35.39,-83.77 -153.22,-20.29 -138.02,161.74 1.43,132.14z"/>
   <path class="fil4" d="M1350.95 2688.2c13.47,19.4 12.1,61.21 91.73,27.02 40.72,-17.48 62.87,-65.81 22.45,-96.43 -137.94,-78.21 -138.89,27.92 -114.18,69.41z"/>
   <path class="fil4" d="M2417.14 2508.08c32.15,17.32 44.78,24.31 97.68,18.98 0.05,-0.07 85.75,-104.73 -19.73,-135.02 -81.17,-23.31 -97.36,54.02 -77.95,116.04z"/>
   <path class="fil4" d="M2203.31 2180.2c-14.73,11.05 -21.06,4.34 -31.93,32.01 -20.97,53.42 41.65,116.77 105.13,82.55 72.54,-39.11 16.4,-181.8 -73.2,-114.56z"/>
   <path class="fil4" d="M2718.64 2691.46c17.64,-89.29 -5.59,-111.65 -89.9,-113.16 -104.37,110.09 1.53,180.98 89.9,113.16z"/>
   <path class="fil4" d="M1992.05 2499.72c75.13,42.8 64.61,43.35 137.48,-0.6 7.2,-151.55 -145.92,-152.96 -137.48,0.6z"/>
   <path class="fil4" d="M2959.74 2422.44l0.88 -0.79c-209.77,-129.67 -164.07,215.05 2.92,71.86l-3.8 -71.07z"/>
   <path class="fil4" d="M1598.03 2396.13l-28.06 77.66c-3.99,24.45 23.38,40.45 24.92,41.45 162.15,104.78 182.62,-206.22 3.14,-119.11z"/>
   <path class="fil4" d="M1791.67 2592.49c-53.53,35.33 -53.57,65.63 -2.42,107.73 22.63,18.62 36.45,31.26 70.37,11.14 81.01,-48.05 12.05,-171.65 -67.95,-118.87z"/>
   <path class="fil4" d="M2066.91 2940.94c9.44,-3.46 0.48,1.56 16.93,-9 0.2,-0.19 14.18,-16.39 15.26,-18.2 13.89,-23.53 13.58,-25.95 15.46,-57.21l2.32 -38.35c-77.71,-23.09 -66.48,-17.36 -124.22,21.82 -2.37,66.39 10.22,107.2 74.25,100.94z"/>
   <path class="fil4" d="M2588.03 3073.92l15.94 11.48 103.09 12.67c80.38,-100.16 -136.08,-161.43 -119.03,-24.15z"/>
   <path class="fil5" d="M1789.54 2059.44c-15.26,-9.78 27.89,-23.13 -39.32,-4.68 -100.38,27.54 -172.33,22.72 -244.34,-73.95 -39.15,-52.56 -20.72,-54.27 -54.9,-95.04 -5.11,10.37 -10.3,-0.64 -7.91,24.9 8.91,95.3 204.91,266.82 346.47,148.77z"/>
   <path class="fil4" d="M1819.09 3106.65c33.07,-7.35 28.72,-8.5 54.65,-20.65 2.86,-3.77 6.53,-8.89 8.27,-11.55l13.51 -24.68c-63.2,-107.9 -159.3,-68.86 -139.87,63.54l63.44 -6.66z"/>
   <path class="fil4" d="M2851.99 2023.21c21.42,68.87 22.18,39.05 11.64,107.38 39.61,-25.09 36.27,-3.17 72.06,-35.73 25.06,-22.79 25.85,-32.96 23.42,-71.65 -11.69,-10.54 15.82,-29.76 -22.65,-4.68 -2.58,-0.16 -6.7,2.3 -7.74,5.05 -0.27,0.7 -34.93,11.78 -76.73,-0.37z"/>
   <path class="fil4" d="M1745.68 2240.78c13.7,23.76 28.32,63.22 79.55,62.62 49.39,-0.57 48.79,-61.61 69.97,-96.72l-149.52 34.1z"/>
   <path class="fil4" d="M1607.09 2943.89c86.73,24.24 136.92,-63.13 97.51,-63.26 -15.01,5.91 -0.31,2.84 -20.49,9.38 -1.62,1.85 -42.92,20.2 -77.02,53.88z"/>
   <ellipse class="fil6" transform="matrix(0.379089 0.218867 -0.239071 0.414083 1424.39 1508.16)" rx="124.85" ry="146.55"/>
   <ellipse class="fil6" transform="matrix(0.379089 0.218867 -0.239071 0.414083 2112.84 1787.18)" rx="124.85" ry="146.55"/>
  </g>
 </g>
</svg>
