<?xml version="1.0" encoding="UTF-8"?>
<!DOCTYPE svg PUBLIC "-//W3C//DTD SVG 1.1//EN" "http://www.w3.org/Graphics/SVG/1.1/DTD/svg11.dtd">
<!-- Creator: CorelDRAW 2021 (64 Bit) -->
<svg xmlns="http://www.w3.org/2000/svg" xml:space="preserve" width="40mm" height="40mm" version="1.1" style="shape-rendering:geometricPrecision; text-rendering:geometricPrecision; image-rendering:optimizeQuality; fill-rule:evenodd; clip-rule:evenodd"
viewBox="0 0 4000 4000"
 xmlns:xlink="http://www.w3.org/1999/xlink"
 xmlns:xodm="http://www.corel.com/coreldraw/odm/2003">
 <defs>
  <style type="text/css">
   <![CDATA[
    .fil4 {fill:#553715}
    .fil2 {fill:#A27849}
    .fil3 {fill:#ED9A9A}
    .fil1 {fill:#F4F2E8}
    .fil0 {fill:#F8ABF6}
   ]]>
  </style>
 </defs>
 <g id="Camada_x0020_1">
  <metadata id="CorelCorpID_0Corel-Layer"/>
  <circle class="fil0" cx="1993.4" cy="2006.6" r="2000"/>
  <g id="_1781021613936">
   <path class="fil1" d="M1177.21 1981.54c91.85,-46.54 110.49,-1.72 177.75,12.39 -26.02,-39.64 -79.99,-45.05 -93.52,-103.68 42.43,1.29 24.73,28.02 95.84,65.84 37.32,-36.97 34.03,-77.73 76.66,-81.12 -9.01,38.11 -49.47,60.95 -58.94,118.67 7.11,40.1 146.8,76.05 126.62,171.44 -9.35,44.25 -38.07,26.37 -65.39,22.51 -8.53,91.42 3.97,76.53 80.77,110.31 83.45,36.7 129.45,37.73 150.58,47.28l-131.23 -10.67c-45,-14.42 -77.61,-41.43 -109.82,-52.23 -12.45,23.47 -19.27,53.63 -26.35,79.74l-12.86 68.9c-1.07,3.97 18.18,-12.49 -9.27,20.79 -37.65,-103.68 116.27,-340.56 -41.67,-444.24 -59.72,-39.2 -134.01,-3.85 -154.59,-20.76 -98.47,6.41 -192.55,110.4 -230.34,210.57 -39.95,105.92 -13.06,282.8 61.06,355.82 31.76,31.28 143.42,108.83 185.48,112.33l-49.52 152.02c-96.67,-51.58 -251.16,-161.33 -345.31,48.77 -45.93,102.53 -11.7,229.05 51.4,315.78l176.37 197.62c84.41,84.88 246.63,217.62 379.95,198.68 77.02,-10.94 134.97,-72.98 140.31,-137.19 29.89,2.49 82.73,9.6 111.83,12.84 132.98,14.84 273.42,-19.77 352.2,-19.77 -18.36,38.26 19.31,130.11 75.21,167.2 76.9,51.02 214.51,32.86 297.19,-44.12 86.61,-80.66 228.99,-310.03 261.87,-396.07 63.98,-167.44 111.54,-273.86 1.35,-383.4 -48.66,-48.36 -112.24,-56.95 -206.23,-56.95 -11.05,-47.44 -45.21,-95.68 -69.26,-131.59l136.78 -154.1c50.86,-53.4 87.21,-105.46 128.32,-162.57 83.6,-116.15 177.63,-297.61 84.31,-434.43 -76.31,-111.88 -164.52,-101.95 -259.37,-38.43 0,-79.4 -1.9,-142.8 -14.66,-213.89 -4.42,-24.58 -12.41,-41.78 -13.04,-70.06 56.72,-13.22 129.34,-35.2 180.15,-55.32l232.38 -120.84 188.29 -171.85c62.87,-62.28 143.94,-223.6 160.28,-310.66 20.97,-111.74 -11.31,-290.36 -126.62,-335.96 -31.08,-12.29 -56.81,-18.59 -92.73,-25.01 -66.36,-11.86 -28.41,-5.96 -68.78,-48.95 -158.32,-168.55 -523.41,33.92 -651.33,163.03 -41.97,42.37 -78.44,79.24 -117.38,125.02 -128.17,150.65 -111.98,213.6 -161.36,316.51 -164.13,-38.23 -335.22,-21.91 -470.75,55.61 -21.47,12.29 -53.12,28.46 -73.66,44.07 -136.51,103.8 -223.25,258.29 -269.98,422.6 -30.57,107.46 -31.76,195.12 -9.2,308.23 5.78,28.94 18.06,70.75 20.21,99.29z"/>
   <path class="fil2" d="M2477.92 1339.04c16.49,-6.47 107.49,-79.85 215.24,-115.39 115.9,-38.23 230.31,-101.14 307.75,-183.53 29.52,-31.4 38.11,-26.07 78.49,-87.73 120.03,-183.26 23.58,-355.52 -252.8,-232.01 -153.09,68.41 -186.87,156.02 -250.29,241.39 -28.64,38.55 -41.75,46.33 -65.27,100.86 -19.62,45.48 -24.15,82.46 -35.66,131.54 -18.38,78.39 -13.61,72.31 2.54,144.87z"/>
   <path class="fil3" d="M2490.96 1296.09c0.37,-0.11 100.91,-69.09 189.9,-98.3 42.47,-13.94 71.78,-26.98 109.09,-43.05 89.88,-38.73 195.59,-119.14 256.22,-194.05 37.01,-45.74 98.64,-161.44 32.04,-224.08 -87.14,-81.95 -324.82,29.56 -411.31,142.64l-120.82 176.72c-18.96,41.07 -63.99,194.86 -55.12,240.12z"/>
   <path class="fil3" d="M1991.32 1808.11c-35.76,18 -58.51,31.04 -81.69,66.1 -49.35,74.63 -5.06,-13.1 -28.67,103.09 -14.78,72.77 32.22,47.53 57.05,79.72 22.28,28.9 -2.3,32.05 100.82,45.71 18,2.39 16.36,7.95 47.24,-17.24 63.06,-51.44 62.47,-33.42 57.85,-161.39 -3.2,-89.01 -31.25,-87.36 -49.8,-98.59l-16.38 -11.68c-29.49,-20.14 -55.94,-21.06 -86.42,-5.72z"/>
   <path class="fil2" d="M1177.21 1981.54l4.58 5.17c20.58,16.91 94.87,-18.44 154.59,20.76 157.94,103.68 4.02,340.56 41.67,444.24 27.45,-33.28 8.2,-16.82 9.27,-20.79l12.86 -68.9c7.08,-26.11 13.9,-56.27 26.35,-79.74 32.21,10.8 64.82,37.81 109.82,52.23l131.23 10.67c-21.13,-9.55 -67.13,-10.58 -150.58,-47.28 -76.8,-33.78 -89.3,-18.89 -80.77,-110.31 27.32,3.86 56.04,21.74 65.39,-22.51 20.18,-95.39 -119.51,-131.34 -126.62,-171.44 9.47,-57.72 49.93,-80.56 58.94,-118.67 -42.63,3.39 -39.34,44.15 -76.66,81.12 -71.11,-37.82 -53.41,-64.55 -95.84,-65.84 13.53,58.63 67.5,64.04 93.52,103.68 -67.26,-14.11 -85.9,-58.93 -177.75,-12.39z"/>
   <path class="fil3" d="M1145.54 3198.95c-14.61,7.28 -20.1,6.12 -25.66,31.5 -15.31,69.98 107.92,233.4 198.36,193.09 93.43,-41.64 -91.69,-264.93 -172.7,-224.59z"/>
   <path class="fil3" d="M2270.78 3272.85c-42.28,19.76 -74.15,69.7 -88.34,128.95 -36.94,154.23 150.55,130.62 182.35,-25.79 13.9,-68.36 -38.22,-129.23 -94.01,-103.16z"/>
   <path class="fil2" d="M2191.22 1177.02c134.11,-364.34 347.2,-537.97 681.91,-653.01 11.55,-3.98 19.6,-5.66 31.34,-9.67l34.85 -21.08c-146.46,11.11 -281.44,76.56 -396.96,150.65 -105.57,67.71 -196.31,171.78 -263.26,276.93 -17.81,27.96 -101.38,193.45 -96.89,235.16 2.45,22.7 -4.68,6.94 9.01,21.02z"/>
   <path class="fil2" d="M2022.14 3405.98c18.61,-39.15 36.16,-160.28 54,-215.79 103.15,-320.99 354.34,-430.72 372.44,-455.5 -40.23,-20.9 -149.49,70.52 -171.34,88.81 -45.81,38.34 -92.97,95.13 -130.38,153.73 -40.9,64.07 -155.77,319.98 -131.78,414.06 4.81,18.88 -1.02,5.51 7.06,14.69z"/>
   <path class="fil2" d="M1542.18 3423.61c-10.38,-88.76 -96.04,-283.9 -137.64,-348.33 -45.43,-70.36 -156.19,-228.62 -240.26,-242.64l116.11 117.45c38.04,42.5 68.36,85.18 100.64,141.74 57.24,100.3 92.12,185.04 129.16,292.51 10.31,29.92 8.07,28.03 31.99,39.27z"/>
   <path class="fil3" d="M1004.69 3185.42c18.1,-47.6 4.54,-77.11 -25.27,-107.56 -15.83,-16.16 -55.21,-62.06 -85.31,-31.34 -46.52,47.5 13.77,174.25 110.58,138.9z"/>
   <path class="fil2" d="M2170.46 2253.61c43.02,0.07 119.25,-86.64 141.31,-115.78 64.38,-85.03 138.22,-193.87 143.34,-315.74 -9.68,7.31 -9.45,1 -20.63,30.09l-36.81 94.46c-62.38,128.54 -62.17,113.63 -143.63,216.7 -17.36,21.96 -78.47,70.17 -83.58,90.27z"/>
   <path class="fil3" d="M1054.22 3028.03c18.2,-77.19 -84.29,-172.25 -126.25,-112.79 -25.94,36.75 46.11,142.43 126.25,112.79z"/>
   <path class="fil3" d="M2550.48 2859.12c-75.31,32.04 -94.33,175.26 -24.14,131.26 8.81,-5.52 53.82,-60.22 60.63,-72.16 24.02,-42.16 -10.91,-69.98 -36.49,-59.1z"/>
   <path class="fil3" d="M1158.17 2998.58c31.09,-60.48 -41.53,-152.06 -85.53,-119.9 -33.96,24.82 4.74,137.81 85.53,119.9z"/>
   <path class="fil3" d="M2611.52 2996.95c-75.54,-26.01 -102.54,85.6 -78.28,113.33 36,41.13 106.86,-33.75 78.28,-113.33z"/>
   <path class="fil4" d="M1746.27 1720.37c20.09,-22.04 34.8,-165.18 148.22,-104.79 29.47,15.69 30.59,36.85 54.02,34.52 2.36,-17.05 -14.64,-29.16 -48.15,-60.97 -100.51,-95.42 -183.27,68.08 -154.09,131.24z"/>
   <path class="fil3" d="M2342.64 2975.42c81.54,24.94 115.28,-72.27 93.78,-101.28 -32.39,-43.72 -102.53,48.41 -93.78,101.28z"/>
  </g>
 </g>
</svg>
