<?xml version="1.0" encoding="UTF-8"?>
<!DOCTYPE svg PUBLIC "-//W3C//DTD SVG 1.1//EN" "http://www.w3.org/Graphics/SVG/1.1/DTD/svg11.dtd">
<!-- Creator: CorelDRAW 2021 (64 Bit) -->
<svg xmlns="http://www.w3.org/2000/svg" xml:space="preserve" width="40mm" height="40mm" version="1.1" style="shape-rendering:geometricPrecision; text-rendering:geometricPrecision; image-rendering:optimizeQuality; fill-rule:evenodd; clip-rule:evenodd"
viewBox="0 0 4000 4000"
 xmlns:xlink="http://www.w3.org/1999/xlink"
 xmlns:xodm="http://www.corel.com/coreldraw/odm/2003">
 <defs>
  <style type="text/css">
   <![CDATA[
    .fil0 {fill:#38A548}
    .fil2 {fill:#9A3A20}
    .fil6 {fill:#A23C07}
    .fil4 {fill:#C1E3CD}
    .fil5 {fill:#EEB318}
    .fil3 {fill:#F26E0E}
    .fil1 {fill:#F48413}
   ]]>
  </style>
 </defs>
 <g id="Camada_x0020_1">
  <metadata id="CorelCorpID_0Corel-Layer"/>
  <circle class="fil0" cx="1993.4" cy="2006.6" r="2000"/>
  <g id="_1779818091824">
   <path class="fil1" d="M1168.45 1400.86c-21.49,-57.59 5.91,-40.56 68.04,-85.44 39.82,-28.75 64.11,-66.36 119.66,-58.55 25.54,97.3 15.08,18.4 -123.66,128.04 -75.2,59.42 -56.47,18.98 -64.04,15.95zm298.09 -492.14c-104.03,19.58 -120.49,46.5 -211.4,74.98 -49.13,53.21 -410.22,249.56 -429.86,298.27 -19.12,75.02 16.86,28.37 32.07,187.68 24.44,255.97 52.66,208.5 28.61,523.33 -0.47,6.26 -2.94,53.98 -2.44,57.5 7.65,54.12 -18.64,13.31 19.38,49.03l356.37 -181.17c-39.26,352.43 -133.43,657.78 -154.74,1032.45 127.56,2.31 297.31,51.68 315.89,154.26l129.99 -11.93 303.71 5.7c34.04,-79.85 2.28,38.12 88.74,-63.04l23.57 21.47c11.69,11.21 6.72,7.9 19.97,19.84 28.71,-34.34 12.99,-37.81 51.6,-48.39l6.69 59.51c196.07,3.98 105.55,-0.76 219.08,-92.14 62.55,-50.34 146.9,-66.7 241.13,-49.17 -92.25,-61.5 -153.76,-106.06 -294.73,-132.27 -214.13,-39.81 -281.84,29.83 -367.02,45.73 10.29,-53.79 253.78,-446.49 586.24,-193.18 90.79,69.18 78.7,92.24 153.16,166.28 -0.54,-69.66 -16.52,-150.93 -22.77,-224.68 -18.9,-222.86 -208.52,-272.01 -261.68,-464.55 33.82,4.73 230.76,97.03 263.78,123.66 48.15,-27.54 9.35,17.03 14.83,-22.53 -48.75,-225.15 -521.86,-738.21 -522.21,-739.25 -32.5,-95.07 32.14,-176.8 -116.95,-393.15 -45.74,-66.35 -75.02,-77.73 -123.73,-136.04 33.09,-42.43 67.93,-44.73 69.64,-115.79 3.16,-131.94 -135.26,-165.23 -230.13,-100.94 -49.29,33.39 -49.96,75.79 -73.3,127.07 -50.88,3.22 -74.34,-3.31 -113.49,21.46z"/>
   <path class="fil2" d="M2044.69 3088.21l0.15 11.31c52.29,0.83 113.16,6.26 150.13,7.52 45.53,1.55 82.54,-12.39 139.6,-11.74 249.21,2.85 52.21,-66.44 240.72,9.14 125.13,50.17 121.69,-63.3 237.74,-57.12 65.95,3.52 193.54,43.56 266.35,58.1 -53.63,-120.4 -199.94,-189.81 -363.14,-130.17 23.96,-59.09 180.98,-198.67 234.44,-235.78 116.3,-80.74 278.17,28.55 391.5,57.84 -34.36,-166.59 -134.49,-285.21 -335.55,-234.61 -217.69,54.78 -198.34,110.16 -291.29,268.52 24.6,-116.74 145.39,-304.28 -22.37,-485.38 -12.89,-13.93 -92.84,-83.68 -116.26,-100.48 -5.48,39.56 33.32,-5.01 -14.83,22.53 -33.02,-26.63 -229.96,-118.93 -263.78,-123.66 53.16,192.54 242.78,241.69 261.68,464.55 6.25,73.75 22.23,155.02 22.77,224.68 -74.46,-74.04 -62.37,-97.1 -153.16,-166.28 -332.46,-253.31 -575.95,139.39 -586.24,193.18 85.18,-15.9 152.89,-85.54 367.02,-45.73 140.97,26.21 202.48,70.77 294.73,132.27 -94.23,-17.53 -178.58,-1.17 -241.13,49.17 -113.53,91.38 -23.01,96.12 -219.08,92.14z"/>
   <path class="fil3" d="M607.65 1612.54c29.04,11.89 29.82,-5.12 40.75,35.82 9.4,35.24 -1.61,32.38 -12.33,50.52 -54.35,-17.31 -61.76,-42.09 -28.42,-86.34zm295.25 486.97c-38.02,-35.72 -11.73,5.09 -19.38,-49.03 -0.5,-3.52 1.97,-51.24 2.44,-57.5 24.05,-314.83 -4.17,-267.36 -28.61,-523.33 -15.21,-159.31 -51.19,-112.66 -32.07,-187.68 -87.39,39.65 -286.77,170.64 -349.24,231.93 16.21,250.01 164.52,546.24 293.56,654.28l133.3 -68.67z"/>
   <path class="fil4" d="M1298.97 3179.34c29.89,-40.3 51.82,-52.9 121.45,-74.29 -18.58,-102.58 -188.33,-151.95 -315.89,-154.26 -136.64,18.52 -273.47,89.96 -277.45,228.05l471.89 0.5z"/>
   <path class="fil2" d="M1420.42 3105.05c-69.63,21.39 -91.56,33.99 -121.45,74.29l-3.11 55.17c89.76,2.67 302.4,22.53 367.85,-9.22 5.38,-9.02 22.71,14.37 0.82,-39.06 -20.05,-48.91 -76.94,-54.89 -114.12,-93.11l-129.99 11.93z"/>
   <path class="fil3" d="M1255.14 983.7c90.91,-28.48 107.37,-55.4 211.4,-74.98 -23.85,-78.91 -69.63,-175.72 -182.07,-141.85 -109.22,32.89 -99.83,172.88 -29.33,216.83z"/>
   <path class="fil2" d="M3324.73 3078.03c13.39,-53.93 26.48,-134.32 37.92,-167.28 -11.51,-31.08 4.28,-19.68 -22.7,-29.15 -18.25,31.24 -36.78,63.99 -53.37,107.8l-29.57 -48.14c-2.08,-2.46 -6.59,-6.51 -8.42,-8.51l-44.82 92.91c-41.14,-27.22 -22.32,-21.12 -76.65,-34.28 42.91,241.48 62.81,200.25 164.04,201.53l33.57 -114.88z"/>
   <path class="fil5" d="M942.15 2760.23c-26.2,-225.18 -389.06,-113.1 -365.81,-10.67 91.77,32.67 256.33,10.46 365.81,10.67z"/>
   <path class="fil4" d="M3362.65 2910.75c-11.44,32.96 -24.53,113.35 -37.92,167.28l254.34 -1.89c14.26,-70.09 -23.2,-119.87 -59.28,-149.81 -49.71,-41.23 -93.37,-32.5 -157.14,-15.58z"/>
   <path class="fil5" d="M3604.84 2876.71l176.54 -6.21 -4.71 -186.2c-18.89,6.29 -7.23,0.44 -31.64,22.06l-38.43 35.68c-12.8,-75.43 5.09,-44.14 -41.17,-67.46l-23.68 72.93c-29.1,-15.64 -23.71,-16.66 -56.98,-29.01l20.07 158.21z"/>
   <path class="fil5" d="M1854.12 3098.82l9.95 85.91c3.71,2 8.5,4.09 11.58,5.08 3.1,0.99 7.98,3.49 11.92,4.56 15.59,4.24 70.7,19.04 149.97,-3.2l7.3 -91.65 -0.15 -11.31 -6.69 -59.51c-38.61,10.58 -22.89,14.05 -51.6,48.39 -13.25,-11.94 -8.28,-8.63 -19.97,-19.84l-23.57 -21.47c-86.46,101.16 -54.7,-16.81 -88.74,63.04z"/>
   <path class="fil6" d="M1168.45 1400.86c7.57,3.03 -11.16,43.47 64.04,-15.95 138.74,-109.64 149.2,-30.74 123.66,-128.04 -55.55,-7.81 -79.84,29.8 -119.66,58.55 -62.13,44.88 -89.53,27.85 -68.04,85.44z"/>
   <path class="fil6" d="M648.4 1648.36c-10.93,-40.94 -11.71,-23.93 -40.75,-35.82 -33.34,44.25 -25.93,69.03 28.42,86.34 10.72,-18.14 21.73,-15.28 12.33,-50.52z"/>
  </g>
 </g>
</svg>
