<?xml version="1.0" encoding="UTF-8"?>
<!DOCTYPE svg PUBLIC "-//W3C//DTD SVG 1.1//EN" "http://www.w3.org/Graphics/SVG/1.1/DTD/svg11.dtd">
<!-- Creator: CorelDRAW 2021 (64 Bit) -->
<svg xmlns="http://www.w3.org/2000/svg" xml:space="preserve" width="40mm" height="40mm" version="1.1" style="shape-rendering:geometricPrecision; text-rendering:geometricPrecision; image-rendering:optimizeQuality; fill-rule:evenodd; clip-rule:evenodd"
viewBox="0 0 4000 4000"
 xmlns:xlink="http://www.w3.org/1999/xlink"
 xmlns:xodm="http://www.corel.com/coreldraw/odm/2003">
 <defs>
  <style type="text/css">
   <![CDATA[
    .fil7 {fill:black}
    .fil5 {fill:#191315}
    .fil0 {fill:#69F1BA}
    .fil6 {fill:#6B1605}
    .fil4 {fill:#BC2C01}
    .fil1 {fill:#EE4911}
    .fil2 {fill:#F9B69E}
    .fil3 {fill:#FD6F3D}
   ]]>
  </style>
 </defs>
 <g id="Camada_x0020_1">
  <metadata id="CorelCorpID_0Corel-Layer"/>
  <circle class="fil0" cx="1993.4" cy="2006.6" r="2000"/>
  <g id="_1779818079632">
   <path class="fil1" d="M2139.25 3655.06l-2.53 -2.1c-48.33,-23.28 18.63,-24.77 -174.84,34.74 -74.3,22.86 -116.85,43.83 -218.26,32.96 -72.7,-128.42 -15.92,-109.86 -177.73,-152.56 -147.6,-38.96 -144.28,-31.08 -144.63,-194.13l-157.58 -42.07c-9.37,-81.5 20.32,-202.79 44.7,-286.21 1.5,-5.14 6.55,-20.84 8,-25.27l9.04 -24.98c324,-13.68 370.07,21.21 584.88,33.7 82.66,4.81 28.19,22.42 68.27,-14.03l31.37 -10.19 15.96 -3.27 -5.58 -114.56c2.21,-0.47 7.44,-0.38 9.64,-0.99 2.09,-0.58 7.12,-0.83 9.07,-1.6 22.88,-9.09 18.88,-13.76 25.73,-32.15l38.53 60.86c16.13,-10.39 17.24,5.21 31.11,-16.79l26.09 -3.67c24.73,-35.81 2.65,2.38 71.51,-59.39l20.22 37.1c17.44,-32.16 3.41,-17.03 37.76,-28.71 24.07,-42.16 32.81,-91.83 53.23,-144.67 56.67,-146.61 58.28,-227.35 112.8,-322.82 32.18,-56.36 61.78,-78.66 67.33,-156.99l-64.79 112.65c-76.98,127.62 -109.04,272.3 -217.21,297.19 1.52,-176.19 -3.44,-170.34 -40.83,-329.71l-113.33 -151.97c-74.35,-74.06 -207.13,-157.23 -317.58,-240.56 -58.88,-44.42 -5.98,-6.33 -64.39,-31.13 -124.47,-52.84 2.6,-63.21 -84.2,-70.09 -11.02,76.99 -160.51,224.16 -217.54,264.82 -204.22,145.62 -304.13,240.67 -325.79,545.43 -8.24,115.9 8.67,55.57 -85.8,147.55 -124.89,121.6 -38.34,375.57 15.53,511.53 64.27,162.21 186.68,325.74 330.15,416.61 204.49,129.5 369.03,91.36 594.62,27.73 66.09,-18.65 147.03,-37.83 207.07,-62.26z"/>
   <path class="fil1" d="M1496.55 1024.83c107.38,37.23 294.09,193.9 347.27,260.31 106.32,132.76 144.62,235.21 201.84,423.86 47.16,-32.74 83.92,-30.44 132.73,-0.91 39.13,-286.88 320.34,-613.21 547.19,-683.69 -4.01,-173.09 3.58,-103.74 38.15,-333.97 19.91,-132.6 -19.85,-257.4 -22.59,-380.2 -110.74,2.46 -253.9,72.02 -337.3,113.86 -58.12,29.16 -86.24,45.33 -133.13,84.68 -70.6,59.23 -78.63,80.66 -151.75,83.6 -136.73,5.49 -95.81,-60.69 -292.72,-160.68 -80.14,-40.69 -232.89,-112.12 -345.25,-121.46 -29.76,127.75 -38.52,429.25 -2.37,547.29 8.96,29.25 21.53,46.65 25.13,78.98 3.97,35.58 -5.91,31.82 -7.2,88.33z"/>
   <path class="fil2" d="M1621.01 1779.52c68.52,2.72 134.09,40.32 213.95,61.41 77.23,20.39 162.88,42.6 252.16,46.12 220.47,8.7 345.68,-86.91 482.89,-99.57 23.55,-31.18 158.14,-97.14 255.92,-178.99 90.95,-76.12 133.01,-155.98 133.01,-318.15 -206.13,0 -148.27,-51.41 -212.33,-223.35l-21.03 -42.59c-226.85,70.48 -508.06,396.81 -547.19,683.69 26.96,124.68 -68.14,112.47 -132.91,79.34l0.18 -78.43c-57.22,-188.65 -95.52,-291.1 -201.84,-423.86 -53.18,-66.41 -239.89,-223.08 -347.27,-260.31 -11.34,17.04 -2.44,-1.14 -16.57,30.93l-35.67 104.56c-58.83,182.87 -71.85,92.15 -83.68,118.57 -15.15,33.86 -145.25,-39.19 -101.63,106.25 77.44,258.22 302.78,323.82 362.01,394.38z"/>
   <path class="fil3" d="M2136.72 3652.96l56.05 -75.69c-24.59,-21.71 -32.06,-18.98 -52.98,-34.99l-45.09 -46.65 102.94 -42.82c-36.9,-61.25 -105.83,-89.22 -121.65,-149.24l190.62 2.2c-10.25,-38.39 -20.48,-50.27 -24.4,-69.11 -14.5,-69.68 0.7,-13.79 4.15,-45.3 3.46,-31.62 34.81,3.52 -39.12,-65.25 -40.07,-33.64 -32.42,-25.34 -73.01,-46.68 -27.92,18.42 -13.92,15.18 -50.04,-8.85 -17.98,-11.97 -24.71,-22.16 -43.13,-36.48 -54,-2.89 -18.92,6.8 -31.12,-29.18l-31.37 10.19c-40.08,36.45 14.39,18.84 -68.27,14.03 -214.81,-12.49 -260.88,-47.38 -584.88,-33.7l-9.04 24.98c-1.45,4.43 -6.5,20.13 -8,25.27 -24.38,83.42 -54.07,204.71 -44.7,286.21l157.58 42.07c0.35,163.05 -2.97,155.17 144.63,194.13 161.81,42.7 105.03,24.14 177.73,152.56 101.41,10.87 143.96,-10.1 218.26,-32.96 193.47,-59.51 126.51,-58.02 174.84,-34.74z"/>
   <path class="fil3" d="M2523.34 2217.27c11.45,-9.17 11.86,-4.83 24.17,-31.85 5.82,-12.75 10.65,-33.63 13.91,-47.64 48.17,-207.64 8.59,-165.56 8.59,-350.3 -137.21,12.66 -262.42,108.27 -482.89,99.57 -89.28,-3.52 -174.93,-25.73 -252.16,-46.12 -79.86,-21.09 -145.43,-58.69 -213.95,-61.41l0 24.13c86.8,6.88 -40.27,17.25 84.2,70.09 58.41,24.8 5.51,-13.29 64.39,31.13 110.45,83.33 243.23,166.5 317.58,240.56l113.33 151.97c37.39,159.37 42.35,153.52 40.83,329.71 108.17,-24.89 140.23,-169.57 217.21,-297.19l64.79 -112.65z"/>
   <path class="fil2" d="M2136.72 3652.96l2.53 2.1c57.66,-1.47 45.54,-10.13 86.16,-9.13 9.96,0.25 76.2,6.9 110.11,10.05 92.93,8.64 122.02,43.94 203.37,45.75 0,-122.63 -61.92,-268.16 -107.69,-343.47 -67.57,-111.17 -81.38,-111.4 -153.89,-188.98 -29.79,-31.87 -19.28,-37.25 -70.07,-43.17 73.93,68.77 42.58,33.63 39.12,65.25 -3.45,31.51 -18.65,-24.38 -4.15,45.3 3.92,18.84 14.15,30.72 24.4,69.11l-190.62 -2.2c15.82,60.02 84.75,87.99 121.65,149.24l-102.94 42.82 45.09 46.65c20.92,16.01 28.39,13.28 52.98,34.99l-56.05 75.69z"/>
   <path class="fil4" d="M1585.58 817.3c40.72,-12.28 102.65,-120.22 313.48,-211.48 -81.74,-74.36 -177.6,-126.25 -317.67,-147.6 -18.84,153.9 -25.03,204.67 4.19,359.08z"/>
   <path class="fil4" d="M2315.44 605.82c342.64,175.22 176.31,120.02 316.26,220.54 22.42,-162.87 20.32,-199.38 3.85,-365.42 -49.97,0.48 -124.5,32.59 -164.31,48.24l-138.72 78.15c-2.49,2.33 -6.59,7.09 -8.59,9.06 -2.03,2 -5.83,6.14 -8.49,9.43z"/>
   <path class="fil3" d="M1978.57 3015.11c-11.51,-79.18 -22.9,-190.81 -46.41,-247.96l-170.09 73.3 -51.01 115.49 267.51 59.17z"/>
   <path class="fil5" d="M2160.49 2892.75l65.51 172.87c37.58,45.34 -5.32,23.61 63.98,29.37 -1.62,-72.45 -16.51,-55.58 -16.51,-124.41 0,-68.29 15,-53.95 16.51,-128.83 -34.35,11.68 -20.32,-3.45 -37.76,28.71l-20.22 -37.1c-68.86,61.77 -46.78,23.58 -71.51,59.39z"/>
   <path class="fil5" d="M2025.9 3001.65l15.16 32.45c18.42,14.32 25.15,24.51 43.13,36.48 36.12,24.03 22.12,27.27 50.04,8.85 -26.44,-116.15 -2.31,-82.21 0.17,-183.01 -13.87,22 -14.98,6.4 -31.11,16.79l-38.53 -60.86c-6.85,18.39 -2.85,23.06 -25.73,32.15 -1.95,0.77 -6.98,1.02 -9.07,1.6 -2.2,0.61 -7.43,0.52 -9.64,0.99l5.58 114.56z"/>
   <path class="fil6" d="M2045.66 1709l-0.18 78.43c64.77,33.13 159.87,45.34 132.91,-79.34 -48.81,-29.53 -85.57,-31.83 -132.73,0.91z"/>
  </g>
  <ellipse class="fil7" cx="1743.72" cy="1441.46" rx="54.65" ry="70.07"/>
  <ellipse class="fil7" cx="2471.94" cy="1442.61" rx="54.65" ry="70.07"/>
 </g>
</svg>
