<?xml version="1.0" encoding="UTF-8"?>
<!DOCTYPE svg PUBLIC "-//W3C//DTD SVG 1.1//EN" "http://www.w3.org/Graphics/SVG/1.1/DTD/svg11.dtd">
<!-- Creator: CorelDRAW 2021 (64 Bit) -->
<svg xmlns="http://www.w3.org/2000/svg" xml:space="preserve" width="40mm" height="40mm" version="1.1" style="shape-rendering:geometricPrecision; text-rendering:geometricPrecision; image-rendering:optimizeQuality; fill-rule:evenodd; clip-rule:evenodd"
viewBox="0 0 4000 4000"
 xmlns:xlink="http://www.w3.org/1999/xlink"
 xmlns:xodm="http://www.corel.com/coreldraw/odm/2003">
 <defs>
  <style type="text/css">
   <![CDATA[
    .fil6 {fill:#402312}
    .fil5 {fill:#CF742A}
    .fil3 {fill:#E79C51}
    .fil2 {fill:#EA9635}
    .fil1 {fill:#F5B56B}
    .fil4 {fill:#FDCF98}
    .fil0 {fill:#FFE1B5}
   ]]>
  </style>
 </defs>
 <g id="Camada_x0020_1">
  <metadata id="CorelCorpID_0Corel-Layer"/>
  <circle class="fil0" cx="1993.4" cy="2006.6" r="2000"/>
  <g id="_1779462538448">
   <path class="fil1" d="M1007.05 1132.16c53.25,3.93 73.21,-12.86 109,-11.99l51.97 81.62 -52.96 90.15c-5.16,20.72 -12.34,29.07 -20.21,46.36 -7.11,15.61 -11.4,30.5 -17.76,49.77 -10.75,32.56 -26.63,70.55 -29.54,105.48 -15.32,-7.36 -11.42,-5.44 -33.75,-9.36l-50.44 6.75c-13.93,53.99 21.8,96.74 37.23,140.29 -19.32,-13.97 -36.14,-27.19 -58.06,-39.76 -102.07,-58.52 -85.77,96.04 40.61,229.57 105.64,111.61 113.72,96.86 178.72,158.56 36.62,24.36 154.19,55.73 196.23,63.54 93.84,7.4 168.9,23.02 270.23,21.67 45.59,-0.61 90.96,-3.08 135.88,-7.54 45.97,-4.57 97.17,-17.12 140.71,-18.06 14.77,-7.78 25.3,-5.28 42.34,-12.35 72.71,-50.31 206.01,-64.3 355.93,-222.82 23.53,-24.87 78.5,-65.26 73.06,-113.5 -54.91,-16.25 -111.66,16.02 -165.05,23.29 17.63,-9.53 68.73,-59.36 81.13,-75.86 21.86,-29.12 44.51,-63.17 48.64,-110.67 -38.48,0.69 -53.46,12.9 -85.01,20.25 20.58,-38.9 23.28,-73.87 20.38,-135.14 -2.56,-53.88 -24.56,-78.02 -33.89,-123.2 -13.87,-8.26 -48.42,-62.27 -49.55,-73.84 -1.23,-12.67 26.79,-61.94 37.17,-77.62l86.64 15.04c52.63,-101.81 125.11,-465.34 31.16,-494.07 -3.71,-1.14 -7.76,-1.88 -12.09,-2.28l-17.26 0c-63.94,4.95 -164.99,58.97 -194.84,77.01 -38.07,23 -97.09,62.74 -129.31,93.45 -18.61,17.74 -26.94,19.65 -45.09,38.82 9.4,53.12 29.44,64.35 37.36,103.05l-34.47 33.07c-25.65,-11.35 -57.11,-23.28 -74.54,-41.61 -27.45,-6.52 -57.51,-21.69 -90.21,-31.03 -37.89,-10.82 -65.74,-16.5 -111.88,-16.39 -78.65,0.19 -168.45,11.74 -216.18,42.64l-81.34 36.92 -47.08 -65.58c-49.44,53.18 -118.71,154.31 -215.87,184.92l-9.67 -13.16c-0.85,-1.37 -1.91,-3.06 -2.74,-4.49 -2.04,-3.52 -6.64,-13.56 -8.75,-18.53 -4.5,-10.64 -9.14,-23.17 -13.03,-34 -24.8,-69.04 -72.58,-264.93 -7.89,-267.96l62.48 17.56c102.86,38.1 130.35,76.96 198.82,127.21l33.16 -72.87c-44.41,-48.3 -102.13,-85.74 -159.09,-120.3 -75.15,-45.59 -126.14,-68.73 -214.8,-68.73 -63.37,94.63 -34.06,319.38 -6.85,425.44 2.89,11.29 3.44,15.38 7.41,26.57 1.83,5.15 2.19,7 5.7,13.58 7.35,13.74 0.92,4.22 7.24,10.13z"/>
   <path class="fil1" d="M1304.08 2657.05l110.2 96.65c-3.57,-34.09 -12.53,-66.83 -15.14,-101.8 -2.89,-38.7 -7.32,-82.6 12.96,-108.27l4.46 11.36c9.85,32.4 -4.77,-25.34 3.4,12.17 1.8,8.26 2.19,16.84 3.01,25.14 9.11,92.4 41.9,200.91 61.18,289.32 6.71,30.77 6.61,52.57 15.36,83.45 117.99,416.2 -86.52,155.27 -46.59,357.94 32.8,17.86 44.45,30.54 80.68,33.76l43.82 0c34.74,-2.85 91.13,-22.91 104.74,-40.51 18.88,-27.83 10.5,-8.49 27.49,-27.34 20.89,-23.17 19.64,-56.99 33.27,-87.39 36.59,-7.27 59.99,-9.51 105.29,-3.8 -15.28,35.07 -10.56,18.63 -42.4,29.92 -27.15,9.63 -34.19,44.35 -65.71,102.11 15.41,7.75 35.16,10.05 51.02,13.5 -45.35,-69.71 41.82,-135.79 113.95,-101.26 -17.91,18.83 -41.51,11.26 -76.71,31.59 -29.71,17.16 -30.2,30.95 -32.37,69.67 33.67,0.72 45.8,6.76 122.42,6.76 113.02,0 264.48,-19.42 370.94,-34.1 72.2,-9.96 162.53,-25.78 216.59,-53.45 42.88,-21.94 84.26,-53.75 103.32,-99.23 7.33,-17.51 9.67,-35.93 16.87,-49.5 -2.44,-48.87 3.58,-85.09 -4.01,-137.27 -5.57,-38.25 -20.05,-77.86 -20.78,-112.51l-14.82 -26.87c-138.31,-320.92 -276.08,-334.59 -480.14,-485.14 -39.44,-29.1 -99.81,-79.58 -132.09,-117.69 -15.08,-17.82 -21.64,-35.14 -35.63,-53.35 -195.84,44.24 -446.27,56.18 -641.33,1.7 -76.07,137.7 -166.73,246.04 -32.86,423.92 13.97,18.56 28.75,30.6 39.61,50.52z"/>
   <path class="fil1" d="M2571.67 1594.81c-15.22,11.99 -23,14.89 -40.22,25.69 -18.07,11.34 -27.22,18.36 -45.88,28.31 0.94,34.35 -11.69,56.1 -20.26,81.01 27.32,18.91 69.93,25.83 86.93,54.99 22.47,38.55 -5.81,76.82 -32.68,87.06 -71.32,27.18 -156.71,-63.6 -223.97,13.22 1.14,8.98 3.13,6.75 -5.89,6.75 -8.87,38.06 -39.4,89.82 -40.5,132.71 30.08,-12.76 57.67,-28.42 96.97,-35.38 34.62,-6.13 90.32,-9.04 106.65,25.28 29.43,61.86 -112.1,88.76 -153.94,102.33 -24.92,8.08 -40.75,18.78 -63.19,24.16 0,42.34 7.16,143.96 33.58,182.95 19.17,-50.39 147.36,-116.35 173.17,-43.61 14.31,40.33 -32.55,70.86 -48.64,87.1 -20.59,20.79 -50.64,50.05 -63.01,71.28 84.11,137.06 215.03,165.04 282.95,362.43 49.65,59.35 82.05,199.04 86.43,292.4 120.25,-25.6 209.9,-245.51 152.09,-380.3 -15.41,-35.92 -35.84,-55.13 -61.31,-80.45l-141.85 -141.68c-57.55,-62.09 -137.22,-178.79 -159.62,-265.68 -38.88,-150.82 104.59,-298.41 222.93,-336.13 95.9,-30.58 148.94,16.18 191.61,71.23 62.68,13.12 106.5,12.8 160.56,-15.96 27.14,-14.45 36.11,-24.86 55.11,-46.33 18.8,-21.24 24.69,-41.53 40.86,-57.81 -4.49,-11.39 -4.26,-13.93 -8.86,-27.35 -0.33,-0.94 -4.55,-12.87 -5.69,-15.3 -6.94,-14.8 1.52,-2.72 -8.24,-13.9 -15.42,37.29 -37.02,74.6 -69.97,96.22 -39.1,25.67 -94.68,23.36 -105.82,-19.1 -16.88,-64.33 73.97,-87.75 57.69,-252.64 -20.78,-25.35 -75.38,-49.49 -109.5,-60.14 -33.61,-10.5 -102.3,-20.71 -139.81,-12.75 -1.78,0.38 -3.74,1.12 -5.26,1.53l-9.59 4.02c124.89,59.93 141.04,215.21 41.12,209.02 -50.55,-3.14 -75.96,-57.69 -104.56,-85.08 -52.08,-49.88 -77.09,-38.84 -120.39,-70.1z"/>
   <path class="fil2" d="M1304.08 2657.05c5.99,61.35 62.01,279.16 77.39,372.55 9.25,56.16 0.74,98.37 -3.13,144.9 -53.77,1.19 -116.36,42.03 -85.04,98.17 27.11,48.59 86.44,50.34 159.62,50.34 -39.93,-202.67 164.58,58.26 46.59,-357.94 -8.75,-30.88 -8.65,-52.68 -15.36,-83.45 -19.28,-88.41 -52.07,-196.92 -61.18,-289.32 -0.82,-8.3 -1.21,-16.88 -3.01,-25.14 -8.17,-37.51 6.45,20.23 -3.4,-12.17l-4.46 -11.36c-20.28,25.67 -15.85,69.57 -12.96,108.27 2.61,34.97 11.57,67.71 15.14,101.8l-110.2 -96.65z"/>
   <path class="fil3" d="M1297.33 2182.61c195.06,54.48 445.49,42.54 641.33,-1.7 -6.52,-25.56 -14.57,-30.47 -23.19,-63.35 -8.14,-31.03 -10.56,-41.01 -10.56,-78.35 -43.54,0.94 -94.74,13.49 -140.71,18.06 -44.92,4.46 -90.29,6.93 -135.88,7.54 -101.33,1.35 -176.39,-14.27 -270.23,-21.67 -1.24,46.39 -41.1,108.76 -60.76,139.47z"/>
   <path class="fil4" d="M2230.06 1137.75c13.87,-34.12 128.82,-356.62 52.02,-366.53 -1.86,-0.24 -3.93,-0.64 -6.01,-0.75 -10.11,-0.53 -19.44,1.98 -29,5 -39.5,12.45 -87.21,44.76 -120.9,68.46 -34.6,24.35 -119.47,89.54 -131.43,123.35 57.92,71.07 126.15,122.62 235.32,170.47z"/>
   <path class="fil3" d="M1947.25 2026.86c104.72,-2.62 334.25,-132.83 342.45,-135.02l5.89 -6.75c67.26,-76.82 152.65,13.96 223.97,-13.22 26.87,-10.24 55.15,-48.51 32.68,-87.06 -17,-29.16 -59.61,-36.08 -86.93,-54.99 8.57,-24.91 21.2,-46.66 20.26,-81.01 -7.12,-26 -23.38,-38.25 -54.25,-40.91 -41.77,-3.6 -56.44,7.74 -80.86,20.66 8.43,-31.58 73.16,-101.26 -9.5,-101.26 -4.13,47.5 -26.78,81.55 -48.64,110.67 -12.4,16.5 -63.5,66.33 -81.13,75.86 53.39,-7.27 110.14,-39.54 165.05,-23.29 5.44,48.24 -49.53,88.63 -73.06,113.5 -149.92,158.52 -283.22,172.51 -355.93,222.82z"/>
   <path class="fil4" d="M1330.93 926.79l3.35 -8.45c-68.47,-50.25 -95.96,-89.11 -198.82,-127.21l-62.48 -17.56c-64.69,3.03 -16.91,198.92 7.89,267.96 3.89,10.83 8.53,23.36 13.03,34 2.11,4.97 6.71,15.01 8.75,18.53 0.83,1.43 1.89,3.12 2.74,4.49l9.67 13.16c97.16,-30.61 166.43,-131.74 215.87,-184.92z"/>
   <path class="fil4" d="M2904.02 1960.48l49 138.9c44.63,79.74 178.27,35.57 209.23,-91.07 18.86,-77.13 5.8,-92.1 -1.7,-167.93 -16.17,16.28 -22.06,36.57 -40.86,57.81 -19,21.47 -27.97,31.88 -55.11,46.33 -54.06,28.76 -97.88,29.08 -160.56,15.96z"/>
   <path class="fil2" d="M1776.64 2991.56c0.63,29.52 12.73,69.13 22.04,93.38 11.19,29.12 33.11,62.09 38.72,82.27l137.54 31.65c-58.92,-24.71 -73.53,-91.04 -83.49,-143.54 -23.24,-122.49 12.54,-191.88 75.57,-270.97 17.62,-22.12 39.76,-40.76 65.99,-55.2 82.3,-45.33 99.96,-37.46 192.54,-11.89 -55.27,-119.18 -420.71,-20.25 -363.85,334.82 -28.41,-18.73 -53.09,-44.4 -85.06,-60.52z"/>
   <path class="fil3" d="M2571.67 1594.81c43.3,31.26 68.31,20.22 120.39,70.1 28.6,27.39 54.01,81.94 104.56,85.08 99.92,6.19 83.77,-149.09 -41.12,-209.02 -59.19,-0.58 -141.74,34.25 -183.83,53.84z"/>
   <path class="fil3" d="M3137.76 1783.83c-1.98,-37.52 -26.85,-72.04 -45.92,-100.05 -23.01,-33.78 -40.39,-52.24 -72.18,-75.47 16.28,164.89 -74.57,188.31 -57.69,252.64 11.14,42.46 66.72,44.77 105.82,19.1 32.95,-21.62 54.55,-58.93 69.97,-96.22z"/>
   <path class="fil3" d="M932.79 1567.8c-24.55,0 -144.93,-30.74 -112.45,78.19 26.44,88.69 159.95,217.02 229.94,270.13 13.34,10.12 23.07,15.41 36.4,24.35 22.7,15.23 46.55,32.24 75.18,39.13 -65,-61.7 -73.08,-46.95 -178.72,-158.56 -126.38,-133.53 -142.68,-288.09 -40.61,-229.57 21.92,12.57 38.74,25.79 58.06,39.76 -15.43,-43.55 -51.16,-86.3 -37.23,-140.29l50.44 -6.75c-26.41,-10.29 -78.3,-18.4 -108.01,-4.15 -20.47,42.65 9.98,62.34 27,87.76z"/>
   <path class="fil3" d="M2249.2 2024.55c-11.49,28.64 -13.51,75.12 -13.51,116.39 22.44,-5.38 38.27,-16.08 63.19,-24.16 41.84,-13.57 183.37,-40.47 153.94,-102.33 -16.33,-34.32 -72.03,-31.41 -106.65,-25.28 -39.3,6.96 -66.89,22.62 -96.97,35.38z"/>
   <path class="fil3" d="M2269.27 2323.89c6.17,25.1 12.83,41.43 24.91,63.03l36.61 51.74c12.37,-21.23 42.42,-50.49 63.01,-71.28 16.09,-16.24 62.95,-46.77 48.64,-87.1 -25.81,-72.74 -154,-6.78 -173.17,43.61z"/>
   <path class="fil3" d="M2601.34 2863.96c0.73,34.65 15.21,74.26 20.78,112.51 7.59,52.18 1.57,88.4 4.01,137.27 20.69,-0.43 26.51,-2.11 42.3,-6.25l31.74 -14c-4.38,-93.36 -36.78,-233.05 -86.43,-292.4 0,38.21 5.08,39.59 -12.4,62.87z"/>
   <path class="fil3" d="M1007.05 1132.16c9.29,50.02 66.35,145.86 108.01,159.78l52.96 -90.15 -51.97 -81.62c-35.79,-0.87 -55.75,15.92 -109,11.99z"/>
   <path class="fil5" d="M1630.04 1781.83l-20.66 -1.9c-7.43,48.89 -28.84,97.19 -69.76,105.51 -54.9,11.17 -93.21,-30.18 -121.77,-50.56 16.35,69.45 135.81,140.59 198.78,9.75 20.15,40.77 34.34,78.17 92.89,79.75 51.28,1.38 97.06,-33.41 106.63,-72.09 -23.06,11.63 -163.42,127.48 -186.11,-70.46z"/>
   <path class="fil3" d="M2242.44 1289.21c3.81,-12.39 31.15,-49.04 40.92,-65.29 16.22,-26.99 22.6,-36.58 33.34,-71.13l-86.64 -15.04c-10.38,15.68 -38.4,64.95 -37.17,77.62 1.13,11.57 35.68,65.58 49.55,73.84z"/>
   <path class="fil3" d="M1334.28 918.34l-3.35 8.45 47.08 65.58 81.34 -36.92c-7.32,-31.35 -65.32,-91.74 -91.91,-109.98l-33.16 72.87z"/>
   <path class="fil6" d="M1609.38 1779.93l20.66 1.9c35.55,-4.19 43.68,-6.89 66.01,-22.63 0.02,-39.3 -21.34,-50.81 -62.24,-55.31 -100.24,-11.03 -133.21,62.24 -24.43,76.04z"/>
   <path class="fil3" d="M1682.16 3316.26c19.39,5.92 34.79,12.89 57.94,13.5 31.52,-57.76 38.56,-92.48 65.71,-102.11 31.84,-11.29 27.12,5.15 42.4,-29.92 -45.3,-5.71 -68.7,-3.47 -105.29,3.8 -13.63,30.4 -12.38,64.22 -33.27,87.39 -16.99,18.85 -8.61,-0.49 -27.49,27.34z"/>
   <path class="fil6" d="M1842.3 1658.41c64.6,24.59 98.35,-58.56 75.35,-96.56 -30.83,-50.93 -101.18,6.76 -75.35,96.56z"/>
   <path class="fil6" d="M1412.42 1641.28c35.56,-57.15 -0.05,-140.09 -49.4,-116.36 -37.75,18.16 -29.08,128.7 49.4,116.36z"/>
   <path class="fil3" d="M1877.62 960.23c17.43,18.33 48.89,30.26 74.54,41.61l34.47 -33.07c-7.92,-38.7 -27.96,-49.93 -37.36,-103.05 -15.43,14.31 -21.97,24.93 -36.09,42.02 -16.76,20.28 -22.85,29.55 -35.56,52.49z"/>
   <path class="fil5" d="M1791.12 3343.26l4.87 0c2.17,-38.72 2.66,-52.51 32.37,-69.67 35.2,-20.33 58.8,-12.76 76.71,-31.59 -72.13,-34.53 -159.3,31.55 -113.95,101.26z"/>
  </g>
 </g>
</svg>
