<?xml version="1.0" encoding="UTF-8"?>
<!DOCTYPE svg PUBLIC "-//W3C//DTD SVG 1.1//EN" "http://www.w3.org/Graphics/SVG/1.1/DTD/svg11.dtd">
<!-- Creator: CorelDRAW 2021 (64 Bit) -->
<svg xmlns="http://www.w3.org/2000/svg" xml:space="preserve" width="40mm" height="40mm" version="1.1" style="shape-rendering:geometricPrecision; text-rendering:geometricPrecision; image-rendering:optimizeQuality; fill-rule:evenodd; clip-rule:evenodd"
viewBox="0 0 4000 4000"
 xmlns:xlink="http://www.w3.org/1999/xlink"
 xmlns:xodm="http://www.corel.com/coreldraw/odm/2003">
 <defs>
  <style type="text/css">
   <![CDATA[
    .fil6 {fill:black}
    .fil0 {fill:#6B56E1}
    .fil4 {fill:#D68D18}
    .fil2 {fill:#EFD913}
    .fil1 {fill:#F0A528}
    .fil3 {fill:#F0D6AC}
    .fil5 {fill:#FEFEFD}
   ]]>
  </style>
 </defs>
 <g id="Camada_x0020_1">
  <metadata id="CorelCorpID_0Corel-Layer"/>
  <circle class="fil0" cx="1993.4" cy="2006.6" r="2000"/>
  <g id="_1779730520256">
   <path class="fil1" d="M1662.76 1432.72c-7.92,3.59 -23.66,12.15 -30.77,13.95 -8.85,8.3 -60.75,33.26 -86.97,61.35 -12.05,12.91 -22.73,23.31 -36.78,36.32 -17.65,16.34 -89.12,100.64 -102.68,118.46 -10.68,14.06 -21.31,27.14 -31.53,41.57 -4.93,6.97 -26.2,38.86 -31.09,41.6l-24.91 39.47c-2.03,2.65 -1.27,1.53 -2.56,2.97 -2.06,7.83 -26.01,45.53 -32.04,55.6 -10.81,18.06 -20.64,35.92 -30.92,55.02 -7.68,14.28 -53.78,109.53 -59.42,113.71 -1.77,8.49 -10.93,24.17 -15.25,32.73l-23.16 48.11c-4.56,9.26 -10.21,35.3 -41.52,30.74 -15.63,-2.27 -40.14,-13.13 -40.78,-30.62 -0.35,-9.76 -0.62,-14.82 -1.43,-22.33 -3.31,-30.99 -6.51,-55.84 -14.28,-82.58 -14.37,-49.46 -33.89,-90.19 -83.12,-108.77 -76.62,-28.92 -170.04,-15.23 -252.43,1.13 -13.25,2.63 -25.4,5.47 -38.55,8.96 -41.21,10.95 -105.89,31.73 -142.53,49.35 -6.18,2.97 -10.3,5.36 -16.08,7.68 -21.56,8.64 -56.23,30.41 -73.3,47.31 -14.69,14.55 -29.33,37.95 -39.14,57.73 -20.99,42.32 -38.41,92 -47.1,146.62 -9.39,59.06 -9.22,126.83 23.16,159.37 18.37,18.47 32.26,26.71 56.22,38.81 117.03,59.09 342.59,52.87 473.57,9.36 31.01,-10.3 17.55,-11.43 47.64,8.54l71.66 48.96c5.41,3.75 8.72,6.5 13.87,9.89 72.13,47.45 88.24,66.05 177.86,110.89l116.65 51.47c5.47,2.2 13.18,5.19 18,7.77 10.18,1.83 107.05,43.65 130.19,52.44 11.3,4.29 7.59,0.48 13.76,22.7 14.93,53.79 40.61,120.55 48.38,173.01 3.56,24.06 4.01,43.96 -6.09,64.05 -3.73,7.43 -23.11,42.87 -27.25,47.08l-1.83 4.1c19.91,3.99 29.18,21.21 26.84,44.94 13.48,-7.46 26.07,-17.79 46.71,-8.67 17.8,7.86 18.26,15.85 25.14,34.61 4.65,-3.34 17.95,-26.68 47.49,-27.34 22.08,-0.49 39.1,14.98 42.79,33.33 26.87,0 73.02,-12.6 97.19,-22.68 79.08,-32.98 108.95,-172.29 114.39,-251.44l2.09 -19.94c-16.13,-4.05 -9.94,-17.65 -8.16,-46.59 1.2,-19.58 1.51,-39.74 1.17,-59.57 -0.62,-36.7 -4.37,-75.22 -10.43,-110.86 -2.35,-13.77 -12.05,-42.13 -1.35,-48.15 18.46,-10.41 20.05,20.49 22.52,34.18 6.83,37.9 8.99,71.98 12.26,111.12l236.29 7.07c1.15,-23.75 -9.42,-60.42 0.45,-79.69 31.78,-8.87 13.22,27.06 27.37,99.85 3.54,18.22 7.69,33.78 13.2,50.85 5.77,17.88 27.57,56.21 4.03,55.58 -4.57,-0.12 -5.33,-1.59 -9.49,-5.45 -0.31,-0.28 -0.77,-0.82 -1.2,-1.19l3.82 15.44 -144.87 -0.22 0 1.94 145.66 1.25c8.75,31.28 20.47,64.23 21.2,100.36 0.46,23.17 -3.49,31.74 -12.54,48.35 -4.1,7.53 -18.44,33.96 -22.74,38.68l-1.82 4.73c23.6,5.2 28.31,25.3 25.8,46.81 19.66,-15.26 43.57,-23.27 63.51,2.37 5.28,6.78 5.57,16.02 9.37,22.76 40.97,-53.23 85.53,-21.14 89.79,4.44 14.73,0 35.59,-4.71 48.97,-7.43 14.85,-3.03 31.1,-8.22 44.79,-13.69 67.21,-26.88 94.21,-114.33 107.49,-181.26 2.83,-14.26 7.25,-33.91 8.71,-49.81 -0.6,-10.22 -1.2,-15.11 5.59,-20.13l-9.85 0.42c-8.78,-13.61 -3.54,-18.98 -0.13,-46.95 2.13,-17.42 3.81,-34.35 5.05,-51.82 1.56,-21.79 0.17,-96.82 6.1,-108.43 26.98,-8.32 19.98,22.54 19.88,44.16 -0.08,18.48 -0.08,46.68 -3.24,63.98l184.49 25.85c155.2,18.99 336.72,31.62 492.25,10.72 31.3,-4.21 60.51,-11.84 89.82,-16.16 -12.36,-35.75 -34.08,-72.23 14.87,-85.36 24.13,-6.46 32.76,3 41.5,18.99 8.35,15.26 18.94,44.46 19.99,45.99 1.31,-5.53 -0.27,-3.73 7.67,-7 4.15,-1.7 7.57,-2.78 11.79,-4.54 9.63,-4 13.64,-8.1 24.27,-8.79 -11.33,-18.28 -19.41,-48.4 9.41,-61.65 22.67,-10.42 39.95,-10.67 51.87,13.01l4.17 8.6c0.2,-9.07 14.11,-14.89 26.7,-28.46l24.82 -27.34c2.28,-11.94 5.59,-41.54 3.3,-55.32 -1.3,-7.87 -3.33,-7.73 -6.96,-13.14 -21.83,0 -49.11,10.61 -66.1,10.97 -8.78,5.28 -65.25,12.17 -80.1,13.68 -8.8,-1.07 -35.67,4.11 -47.51,4.91l-76.76 3.61c-7.89,-0.46 -15.89,-0.35 -23.82,-0.34 -11.02,0.02 -13.28,1.89 -23.69,1.89 -24.28,1.4 -160.56,-0.15 -172.84,-10.96 -7.62,0 -29.01,-3.38 -33.67,-5.21 -40.82,-1.78 -121.05,-39.67 -153.26,-66.32 -18.07,-14.95 -54.97,-49.66 -61.84,-71.02 -7.69,-10.89 -15.39,-26.63 -20.65,-39.19 -19.61,-20.88 -70,-237.49 -71.78,-280.62 -2.44,-7.64 -1.89,-16.39 -5.64,-25.58 -18.06,-113.89 -62.83,-253.63 -116.64,-356.05 -5.52,-10.5 -19.74,-34.7 -22.93,-44.18 -6.61,-9.64 -11.71,-18.49 -18.47,-27.7 -3.36,-4.57 -6.23,-7.95 -9.66,-12.27 -3.69,-4.65 -8.18,-9.03 -10.73,-13.53 -3.3,-1.88 -15.64,-14.59 -19.38,-18.49 -18.12,-18.88 -39.09,-36.92 -60.73,-52.58 -29.8,-21.56 -58.75,-38.9 -94.34,-57.32 -84.27,-43.64 -136.23,-54.09 -223.94,-78.55 -12.31,-3.54 -24.49,-5.65 -36.55,-8.08 -17.09,-0.36 -45.27,-6.72 -64.05,-9.15 -109.77,-14.17 -223.64,-11.72 -331.65,11.64 -58.2,12.59 -79.37,26.5 -110.52,34.61z"/>
   <path class="fil2" d="M1662.76 1432.72c31.15,-8.11 52.32,-22.02 110.52,-34.61 108.01,-23.36 221.88,-25.81 331.65,-11.64 18.78,2.43 46.96,8.79 64.05,9.15 0,-29.63 2.16,-37.83 -0.1,-67.65 -7.2,-94.99 -65.15,-209.95 -120.25,-283.62l-32.39 -38.88c-21.16,-27.36 -85.08,-86.6 -135.6,-79.23 -25.39,3.71 -58.07,28.78 -74.04,44.75 -4.81,4.81 -5.83,7.84 -10.86,12.9 -60.79,61.08 -127.27,196.48 -146.9,282.56 -2.71,11.85 -5.83,28.37 -6.25,41.27l2.39 45.25c3.93,29.95 7.19,55.4 17.78,79.75z"/>
   <path class="fil2" d="M2205.53 1403.7c87.71,24.46 139.67,34.91 223.94,78.55 35.59,18.42 64.54,35.76 94.34,57.32 21.64,15.66 42.61,33.7 60.73,52.58 3.74,3.9 16.08,16.61 19.38,18.49l19.54 -21.99c7.32,-9 11.54,-15.89 17.78,-26.08 3.04,-4.95 5,-7.12 7.78,-12.33l21.22 -44.57c34.46,-86.61 55.64,-202.91 36.79,-297.35 -10.74,-53.85 -33.27,-77.47 -88.96,-84.65 -85.45,-11.01 -211.33,48.87 -282.04,104.45 -8.68,6.82 -15.01,13.37 -23.74,20.12 -40.75,31.52 -86.45,105.97 -106.76,155.46z"/>
   <path class="fil2" d="M1342.94 1745.97c4.89,-2.74 26.16,-34.63 31.09,-41.6 10.22,-14.43 20.85,-27.51 31.53,-41.57 13.56,-17.82 85.03,-102.12 102.68,-118.46 14.05,-13.01 24.73,-23.41 36.78,-36.32 26.22,-28.09 78.12,-53.05 86.97,-61.35 -9.96,-28.64 -121.91,-108.81 -147.08,-123.69 -47.12,-27.84 -146.35,-85.34 -202.87,-61.49 -52.1,21.98 -78.26,100.95 -78.03,155.9 0.05,12.31 -0.61,26.36 0.03,38.42 4.13,76.74 29.7,176.88 76.19,234.49 19.11,23.69 38.28,38.41 62.71,55.67z"/>
   <path class="fil2" d="M2642.78 1664.14c3.19,9.48 17.41,33.68 22.93,44.18 53.81,102.42 98.58,242.16 116.64,356.05 8.87,-1.76 31.37,-18.65 40.15,-24.48l38.32 -27.48c6.58,-4.93 11.33,-8.71 17.47,-13.6 61.43,-48.93 143.24,-127.76 147.8,-210.39 1.48,-26.75 -6.08,-57.17 -23.27,-73.61 -31.59,-30.24 -129.23,-47.59 -175.88,-50.73 -7.59,-0.51 -21.83,-1.26 -30.36,-2.54l-93.98 -2.89 -59.82 5.49z"/>
   <path class="fil3" d="M2602.24 2811.79c-6.79,5.02 -6.19,9.91 -5.59,20.13 6.42,0 17.29,1.58 24.78,2.6l51.41 5.23c8.44,1.1 17.67,0.57 27.84,1.4l105.83 7.48c53.65,5.88 137.2,4.95 192.16,5.23l132.39 -10.16c70.29,-10.28 119.83,-16.53 191.06,-35.55l87.17 -25.58 -22.68 -49.01c-29.31,4.32 -58.52,11.95 -89.82,16.16 -155.53,20.9 -337.05,8.27 -492.25,-10.72l-184.49 -25.85c1.02,15.08 -2.59,38.05 -4.48,53.52 -1.09,8.94 -2.23,17.24 -3.45,26.04 -1.53,11.08 -1.21,16.69 -9.88,19.08z"/>
   <path class="fil4" d="M1522.04 3003.14c4.14,-4.21 23.52,-39.65 27.25,-47.08 10.1,-20.09 9.65,-39.99 6.09,-64.05 -7.77,-52.46 -33.45,-119.22 -48.38,-173.01 -6.17,-22.22 -2.46,-18.41 -13.76,-22.7 -23.14,-8.79 -120.01,-50.61 -130.19,-52.44 4.86,19.93 8.39,42.34 12.32,62.43 4.13,21.17 8.63,44.86 11.12,65.64 1.37,11.42 3.72,23.62 3.99,34.38 1.09,43.87 7.52,45.36 -20.23,91.29 -28.72,47.55 -32.73,64.87 18.97,89.07 36.77,17.21 68.46,13.76 97.04,18.09 15.04,2.28 23.01,-0.09 35.78,-1.62z"/>
   <path class="fil2" d="M2787.99 2089.95c1.78,43.13 52.17,259.74 71.78,280.62 13.21,-3.49 64.79,-38.57 78.34,-48.77 24.41,-18.38 47.29,-39.4 64.58,-65.17 11.17,-16.66 21.82,-36.82 21.65,-64.38 -0.32,-49.78 -45.89,-71.52 -84.67,-87.17 -34.73,-14.01 -72.67,-18.9 -111.03,-18.85 -14.55,0.02 -26.43,3.72 -40.65,3.72z"/>
   <path class="fil2" d="M1193.09 2012.74c5.64,-4.18 51.74,-99.43 59.42,-113.71 10.28,-19.1 20.11,-36.96 30.92,-55.02 6.03,-10.07 29.98,-47.77 32.04,-55.6l-30.72 -13.07c-42.46,-17.23 -138.68,-44.47 -184.64,-39.7 -28,2.9 -39.78,23.35 -40.5,50.88 -1.09,42.17 9.62,74.05 26.26,107.28 12.44,24.83 26.09,45.85 44.64,66.84 4,4.53 7.89,7.38 11.84,11.92 5.86,6.73 3.35,5.25 10.78,11.15 9.52,7.56 20.73,21.69 39.96,29.03z"/>
   <path class="fil3" d="M1922.85 2790.05l-2.09 19.94c26.54,0 47.31,1.82 74.6,1.82 14.87,0 67.63,2.19 73.1,0.61l144.87 0.22 -3.82 -15.44c-13.58,-22.91 -29.4,-89.15 -34.36,-119.95l-236.29 -7.07c0.19,23.02 0.55,45.47 -0.56,68.59 -0.52,10.96 -1.33,21.8 -2.24,32.92 -0.94,11.61 -1.32,17.81 -13.21,18.36z"/>
   <path class="fil2" d="M2880.42 2409.76c6.87,21.36 43.77,56.07 61.84,71.02 32.21,26.65 112.44,64.54 153.26,66.32 1.88,-8.66 5.1,-16.56 7.34,-25.83 8.19,-33.92 4.5,-36.27 8.34,-61.11 2.92,-18.85 -5.1,-71.84 -12,-90.62 -6.06,-16.49 -13.81,-32.98 -29.19,-40.27 -40.67,-19.25 -139.28,37.36 -171.3,64.6 -6.43,5.47 -12.29,10.91 -18.29,15.89z"/>
   <path class="fil4" d="M2200.04 3003c4.3,-4.72 18.64,-31.15 22.74,-38.68 9.05,-16.61 13,-25.18 12.54,-48.35 -0.73,-36.13 -12.45,-69.08 -21.2,-100.36l-145.66 -1.25c0,50.24 7.09,32.86 -18.27,79.69 -12.74,23.53 -34.75,49.99 -15.12,71.77 22.55,25.01 81.78,37.99 115.67,37.84 24.27,-0.1 10.85,5.06 49.3,-0.66z"/>
   <path class="fil5" d="M814.69 1967.35c36.1,9.87 62.5,41.29 58.66,87.96 -3.51,42.67 -30.92,68.79 -65.27,80.76 12.57,17.96 74.14,21.43 110.53,4.72 103.47,-47.52 47.27,-186.96 -48.92,-189.92 -17,-0.52 -48.63,5.67 -55,16.48z"/>
   <path class="fil2" d="M3129.19 2552.31c12.28,10.81 148.56,12.36 172.84,10.96 0.85,-10.23 2.88,-11.45 0.84,-24.58 -5.36,-34.51 -30.65,-134.69 -77.27,-119.48 -38.99,12.72 -82,66.07 -92.85,108.19 -1.87,7.25 -2.01,20.66 -3.56,24.91z"/>
   <path class="fil3" d="M1629.51 1579.08c-62.85,11.28 -120.5,69.95 -121.76,119.78 -0.59,23.32 15.48,44.8 40.36,38.71 26.39,-6.46 69.86,-57.84 86.37,-74.29 53.63,-53.43 42.61,-92.74 -4.97,-84.2z"/>
   <path class="fil6" d="M808.08 2136.07c34.35,-11.97 61.76,-38.09 65.27,-80.76 3.84,-46.67 -22.56,-78.09 -58.66,-87.96 -12.46,2.85 -29.32,21.92 -36.04,31.63 -8.82,12.76 -17.68,29.99 -20.08,49.43 -5.2,42.27 27.15,83.08 49.51,87.66z"/>
   <path class="fil3" d="M2051.54 1459.6c-11.79,1.52 -22.49,2.59 -30.08,9.49 -7.71,7.01 -9.03,18.79 -2.37,28.78 9.44,14.14 31.04,18.62 51.95,24.86 25.32,7.55 100.84,33.63 123.54,33.16 52.98,-1.12 41.14,-57.29 -9.41,-79.71 -35.03,-15.54 -91.93,-21.97 -133.63,-16.58z"/>
   <path class="fil3" d="M1880.74 1555.85c-58.19,8.46 -147.41,71.75 -132.46,101.29 19.82,39.14 151.78,-24.95 175.24,-37.43 50.61,-26.92 20.4,-73.04 -42.78,-63.86z"/>
   <path class="fil4" d="M3506.7 2692.85c-1.23,12.27 10.8,24.53 12.82,36.73l16.44 31.05c5.89,11.42 11.57,20.09 18.63,30.72 3.59,5.41 5.79,8.66 9.79,13.97 6.96,9.22 28.54,37.34 41.29,25.14 16.26,-15.58 -1.98,-95.67 -10.08,-120.32 -4.15,-12.63 -8.81,-24.48 -12.13,-36.67l-11.31 -20.66 -4.17 -8.6c-11.92,-23.68 -29.2,-23.43 -51.87,-13.01 -28.82,13.25 -20.74,43.37 -9.41,61.65z"/>
   <path class="fil4" d="M3386.61 2733.56l22.68 49.01c8.25,9.49 36.56,66.87 60.17,72.19 33.2,7.49 6.9,-92.29 6.18,-101.98l-12.67 -39.6c-1.05,-1.53 -11.64,-30.73 -19.99,-45.99 -8.74,-15.99 -17.37,-25.45 -41.5,-18.99 -48.95,13.13 -27.23,49.61 -14.87,85.36z"/>
   <path class="fil4" d="M3349.54 2561.72l76.76 -3.61c0.59,-7.64 3.31,-15.6 4.71,-24.85l6.33 -83.36c-2.39,-176.24 -87.8,-12.12 -87.8,111.82z"/>
   <path class="fil3" d="M2428.66 1680.27c-26.88,13.29 28.19,69.78 35.91,77.53 69.65,70.03 103.98,55.12 74.04,-2.78 -19.6,-37.9 -76.37,-91.36 -109.95,-74.75z"/>
   <path class="fil4" d="M3473.81 2553.2c14.85,-1.51 71.32,-8.4 80.1,-13.68 10.35,-17.88 1.84,-218.49 -58.71,-64.51 -6.58,16.7 -20.05,58.87 -21.39,78.19z"/>
   <path class="fil3" d="M2169.73 1632.8c-22.03,5.28 -38.11,39.34 18.67,63.04 13.27,5.54 78.55,28.98 89.36,27.6 62.85,-7.99 -62.21,-101.63 -108.03,-90.64z"/>
   <path class="fil4" d="M546.04 2023.36c-51.67,11.44 -53.64,121.52 -0.12,108.74 19.8,-4.73 35.66,-29.91 38.27,-55.23 2.79,-27.17 -9.73,-59.8 -38.15,-53.51z"/>
   <path class="fil4" d="M844.56 2243.45c-8.55,4.47 -7.82,15.1 -16.07,33.77 -23.89,54.1 -71.99,99.17 -126.6,120.2 -13.25,5.1 -25.04,6.61 -38.41,10.95 -14.68,4.77 -11.14,25.38 9.07,21.94 73.96,-12.63 135.75,-67.98 169.05,-127.12 5.07,-9.01 21.72,-42.94 18.77,-53.83 -1.75,-6.48 -8.6,-9.67 -15.81,-5.91z"/>
   <path class="fil3" d="M2336.79 1519.19c-5.69,3.16 -9.26,12.3 -5.56,21 2.77,6.52 9.9,9.91 15.64,13.67 24.89,16.32 95.49,69.48 117.96,62.94 17.08,-4.98 -4.51,-33.58 -8.76,-38.71 -23.52,-28.43 -92.55,-73.75 -119.28,-58.9z"/>
   <path class="fil4" d="M1922.85 2790.05c11.89,-0.55 12.27,-6.75 13.21,-18.36 0.91,-11.12 1.72,-21.96 2.24,-32.92 1.11,-23.12 0.75,-45.57 0.56,-68.59 -3.27,-39.14 -5.43,-73.22 -12.26,-111.12 -2.47,-13.69 -4.06,-44.59 -22.52,-34.18 -10.7,6.02 -1,34.38 1.35,48.15 6.06,35.64 9.81,74.16 10.43,110.86 0.34,19.83 0.03,39.99 -1.17,59.57 -1.78,28.94 -7.97,42.54 8.16,46.59z"/>
   <path class="fil4" d="M1709.18 3084.11c-3.69,-18.35 -20.71,-33.82 -42.79,-33.33 -29.54,0.66 -42.84,24 -47.49,27.34 -6.88,-18.76 -7.34,-26.75 -25.14,-34.61 -20.64,-9.12 -33.23,1.21 -46.71,8.67 2.34,-23.73 -6.93,-40.95 -26.84,-44.94 -11.18,24.18 -6.37,34.42 10.66,47.94 26.43,21 76.4,30.48 111.83,30.71 13.34,0.09 16.49,3.17 31.79,0.82l34.69 -2.6z"/>
   <path class="fil4" d="M2386.69 3084.11c-4.26,-25.58 -48.82,-57.67 -89.79,-4.44 -3.8,-6.74 -4.09,-15.98 -9.37,-22.76 -19.94,-25.64 -43.85,-17.63 -63.51,-2.37 2.51,-21.51 -2.2,-41.61 -25.8,-46.81 -17.61,29.28 6.71,49.82 32.33,60.5 8.77,3.65 17.64,6.65 27.32,9.22 18.23,4.84 41.04,8.3 62.84,8.44 13.33,0.09 16.48,3.17 31.79,0.82l34.19 -2.6z"/>
   <path class="fil4" d="M2175.15 2677.25c4.96,30.8 20.78,97.04 34.36,119.95 0.43,0.37 0.89,0.91 1.2,1.19 4.16,3.86 4.92,5.33 9.49,5.45 23.54,0.63 1.74,-37.7 -4.03,-55.58 -5.51,-17.07 -9.66,-32.63 -13.2,-50.85 -14.15,-72.79 4.41,-108.72 -27.37,-99.85 -9.87,19.27 0.7,55.94 -0.45,79.69z"/>
   <path class="fil4" d="M2602.24 2811.79c8.67,-2.39 8.35,-8 9.88,-19.08 1.22,-8.8 2.36,-17.1 3.45,-26.04 1.89,-15.47 5.5,-38.44 4.48,-53.52 3.16,-17.3 3.16,-45.5 3.24,-63.98 0.1,-21.62 7.1,-52.48 -19.88,-44.16 -5.93,11.61 -4.54,86.64 -6.1,108.43 -1.24,17.47 -2.92,34.4 -5.05,51.82 -3.41,27.97 -8.65,33.34 0.13,46.95l9.85 -0.42z"/>
   <path class="fil4" d="M1443.73 2480.59c-15.14,6.06 -4.38,40.17 -1.81,55.07 6.06,35.11 16.41,73.73 28.14,107.03 4.5,12.76 9.56,44.11 27.27,38.55 15.76,-4.94 -1.83,-35.78 -6.31,-48.75 -12.09,-35.02 -20.99,-70.58 -27.29,-107.52 -2.31,-13.59 -1.29,-51.88 -20,-44.38z"/>
   <path class="fil4" d="M447.88 2038.53c-35.33,16.15 -14.65,91.19 19.92,79.1 35.48,-12.41 14.48,-94.82 -19.92,-79.1z"/>
   <path class="fil4" d="M1027.25 2278.24c-6.37,4.33 -15.53,24.68 -20.24,33.15 -12.99,23.38 -27.5,41.39 -46.11,59.9 -21.39,21.28 -0.14,28.6 9.01,23.7 19.35,-10.35 54.24,-66.04 67.9,-91.14 16.99,-31.21 -5.37,-29.14 -10.56,-25.61z"/>
   <path class="fil3" d="M1810.76 1499.22c-26.37,-23.63 -96.87,11.31 -93,31.09 3.74,19.07 39.33,3.58 51.12,-1.22 15.23,-6.2 42.33,-10.09 41.88,-29.87z"/>
   <path class="fil3" d="M3462.97 2713.18l12.67 39.6c8.41,-0.74 14.98,-6.84 21.92,-10.42 8.4,-4.33 14.04,-8.61 21.96,-12.78 -2.02,-12.2 -14.05,-24.46 -12.82,-36.73 -10.63,0.69 -14.64,4.79 -24.27,8.79 -4.22,1.76 -7.64,2.84 -11.79,4.54 -7.94,3.27 -6.36,1.47 -7.67,7z"/>
   <path class="fil3" d="M3572.15 2652.81l11.31 20.66c14.67,-12.68 37.72,-52.29 40.21,-76.46l-24.82 27.34c-12.59,13.57 -26.5,19.39 -26.7,28.46z"/>
  </g>
 </g>
</svg>
