<?xml version="1.0" encoding="UTF-8"?>
<!DOCTYPE svg PUBLIC "-//W3C//DTD SVG 1.1//EN" "http://www.w3.org/Graphics/SVG/1.1/DTD/svg11.dtd">
<!-- Creator: CorelDRAW 2021 (64 Bit) -->
<svg xmlns="http://www.w3.org/2000/svg" xml:space="preserve" width="65.617mm" height="65.617mm" version="1.1" style="shape-rendering:geometricPrecision; text-rendering:geometricPrecision; image-rendering:optimizeQuality; fill-rule:evenodd; clip-rule:evenodd"
viewBox="0 0 6561.7 6561.7"
 xmlns:xlink="http://www.w3.org/1999/xlink"
 xmlns:xodm="http://www.corel.com/coreldraw/odm/2003">
 <defs>
  <style type="text/css">
   <![CDATA[
    .fil5 {fill:black}
    .fil10 {fill:#042367}
    .fil4 {fill:#110F2A}
    .fil8 {fill:#174D87}
    .fil2 {fill:#2D0A00}
    .fil6 {fill:#313131}
    .fil9 {fill:#322F52}
    .fil3 {fill:#33071E}
    .fil1 {fill:#42271F}
    .fil0 {fill:#574039}
    .fil7 {fill:#59263F}
    .fil11 {fill:#646173}
   ]]>
  </style>
 </defs>
 <g id="Camada_x0020_1">
  <metadata id="CorelCorpID_0Corel-Layer"/>
  <g id="_3050891088064">
   <polygon class="fil0" points="1265.8,427.57 1265.8,639.24 630.8,639.24 630.8,427.57 207.47,427.57 207.47,1274.24 419.13,1274.24 419.13,1485.9 630.8,1485.9 630.8,1274.24 842.47,1274.24 842.47,1697.57 1054.13,1697.57 1054.13,1909.24 1265.8,1909.24 1265.8,2120.9 1265.8,2332.57 1054.13,2332.57 1054.13,2544.24 842.47,2544.24 842.47,2755.9 419.13,2755.9 419.13,2544.24 207.47,2544.24 207.47,3179.23 419.13,3179.23 419.13,3814.23 630.8,3814.23 632.59,4447.44 1057.7,4445.44 1055.92,4659.11 1481.04,4657.11 1479.25,4870.78 1904.37,4868.77 1902.58,5082.44 2108.89,5080.35 2113.53,4449.24 2324.13,4449.23 2324.13,4237.57 2532.49,4237.56 2533.68,4881.54 2738.49,4881.54 2742.77,5088.92 2950.14,5093.94 2954.44,5300.59 3161.81,5305.61 3166.1,5723.92 3373.48,5728.94 3377.77,5935.59 3585.14,5940.61 3589.43,6147.25 4008.48,6152.04 4008.49,6356.34 5084.76,6356.34 5084.76,6151.53 5289.57,6151.53 5291.59,5927.09 5075.81,5931.1 4652.15,5932.37 3807.06,5929.43 3806.43,5718.59 3595.4,5717.85 3594.76,5295.26 3383.73,5294.51 3383.09,5083.6 3172.06,5082.85 3172.06,4238.83 3382.46,4240.11 4017.05,4243.96 4437.3,4241.06 4436.1,4453.92 4643.47,4458.94 4647.77,4665.59 5501.19,4669.87 5501.1,4451.22 5708.58,4451.22 5708.8,4662.89 5922.46,4663.8 6136.03,4662.8 6136.03,4236.3 5710.79,4235.94 5501.11,4235.51 5501.11,4023.91 5289.66,4023.91 5288.45,3812.33 5076.7,3813.32 5077.7,3600.66 4867.94,3598.75 4867.94,3386.95 4660.36,3383 4660.36,3170.96 4229.13,3174.29 4017.46,3177.24 4017.46,2967.57 3805.79,2967.57 3382.46,2967.57 3170.79,2967.57 3170.79,2755.9 2538.73,2752.96 2540.2,2335.51 2960.11,2335.51 2960.11,2121.81 2535.8,2120.9 2535.8,1909.24 2535.8,1697.57 2324.13,1697.57 2324.13,1909.24 2112.46,1909.24 2112.46,1697.57 1900.8,1697.57 1900.8,1485.9 2112.46,1485.9 2112.46,1274.24 2535.8,1274.24 2535.8,1485.9 2959.13,1485.9 2959.13,1274.24 3382.46,1274.24 3382.46,1485.9 3594.13,1485.9 3594.13,1697.57 4017.46,1697.57 4017.46,2120.9 4229.13,2120.9 4229.13,2332.57 4652.46,2332.57 4652.46,2544.24 4864.12,2544.24 4864.12,2755.9 5075.79,2755.9 5075.79,2967.57 5287.46,2967.57 5287.46,3179.23 5499.12,3179.23 5499.12,3390.9 5710.79,3390.9 5710.79,3602.57 6134.12,3602.57 6134.12,3390.9 6345.79,3390.9 6345.79,3179.23 6134.12,3179.23 6134.12,2755.9 5710.79,2755.9 5710.79,2332.57 5499.12,2332.57 5499.12,2120.9 5287.46,2120.9 5287.46,1909.24 5075.79,1909.24 5075.79,1697.57 4864.12,1697.57 4864.12,1485.9 4652.46,1485.9 4652.46,1062.57 4864.12,1062.57 4864.12,850.91 4440.79,850.91 4440.79,639.24 4229.13,639.24 4229.13,427.57 3594.13,427.57 3594.13,215.91 1900.8,215.91 1900.8,427.57 2112.46,427.57 2112.46,850.91 1900.8,850.91 1900.8,1062.57 1689.13,1062.57 1689.13,427.57 "/>
   <polygon class="fil1" points="3596.23,2336.06 3798.4,2339.55 3802.3,2755.9 4017.46,2755.9 4017.46,2967.57 4229.13,2967.57 4229.13,3174.29 4660.36,3170.96 4660.36,3383 4867.94,3386.95 5075.78,3391.59 5077.7,3600.66 5287.46,3602.57 5287.46,3390.9 5499.12,3390.9 5499.12,3179.23 5287.46,3179.23 5287.46,2967.57 5075.79,2967.57 5075.79,2755.9 4864.12,2755.9 4864.12,2544.24 4652.46,2544.24 4652.46,2332.57 4229.13,2332.57 4017.46,2332.57 4017.46,2120.9 3594.13,2120.9 "/>
   <polygon class="fil2" points="1265.8,427.57 1689.13,427.57 1689.13,1062.57 1900.8,1062.57 1900.8,850.91 2112.46,850.91 2112.46,427.57 1900.8,427.57 1900.8,215.91 3594.13,215.91 3594.13,4.24 1689.13,4.24 1689.13,215.91 1265.8,215.91 "/>
   <polygon class="fil3" points="3593.57,5084.79 3805.79,5084.94 4017.14,5084.53 4017.31,5296.04 4229.13,5295.88 4864.12,5295.88 5075.94,5296.04 5076.09,5083.67 4653.71,5083.12 4652.81,4872.21 4442.04,4871.45 4441.14,4660.55 4018.71,4659.78 4017.81,4448.88 3592.96,4448.12 "/>
   <polygon class="fil4" points="5287.46,3602.57 5288.45,3812.33 5710.79,3814.23 5710.79,4235.94 6136.03,4236.3 6134.12,4025.9 6134.12,3814.23 6557.45,3814.23 6557.45,3390.9 6345.79,3390.9 6134.12,3390.9 6134.12,3602.57 5710.79,3602.57 5710.79,3390.9 5499.12,3390.9 5287.46,3390.9 "/>
   <polygon class="fil2" points="2535.8,1697.57 3594.13,1697.57 3594.13,1485.9 3382.46,1485.9 3382.46,1274.24 2959.13,1274.24 2959.13,1485.9 2535.8,1485.9 2535.8,1274.24 2112.46,1274.24 2112.46,1485.9 1900.8,1485.9 1900.8,1697.57 2112.46,1697.57 2112.46,1909.24 2324.13,1909.24 2324.13,1697.57 "/>
   <polygon class="fil2" points="1902.58,5082.44 1900.8,5295.88 2747.26,5296.1 2742.77,5088.92 2535.67,5084.64 2533.68,4881.54 2532.49,4237.56 2324.13,4237.57 2324.13,4449.23 2113.53,4449.24 2108.89,5080.35 "/>
   <polygon class="fil1" points="207.47,2544.24 419.13,2544.24 419.13,2332.57 630.8,2332.57 630.8,2120.9 1265.8,2120.9 1265.8,1909.24 1054.13,1909.24 842.47,1909.24 842.47,1697.57 419.13,1697.57 419.13,1909.24 207.47,1909.24 "/>
   <polygon class="fil5" points="3170.79,2755.9 3170.79,2544.24 3170.8,2332.14 3596.23,2336.06 3594.13,2120.9 3170.79,2121.81 2960.11,2121.81 2960.11,2335.51 2540.2,2335.51 2538.73,2752.96 "/>
   <polygon class="fil2" points="419.13,2544.24 419.13,2755.9 842.47,2755.9 842.47,2544.24 1054.13,2544.24 1054.13,2332.57 1265.8,2332.57 1265.8,2120.9 630.8,2120.9 630.8,2332.57 419.13,2332.57 "/>
   <polygon class="fil2" points="5287.66,6354.43 5084.76,6356.34 4008.49,6356.34 3593.92,6354.43 3594.13,6565.89 5287.42,6565.89 "/>
   <polygon class="fil1" points="2535.8,1909.24 3170.79,1909.24 3170.79,2121.81 3594.13,2120.9 3594.13,1697.57 2535.8,1697.57 "/>
   <polygon class="fil2" points="5075.79,1697.57 5075.79,1485.9 5287.46,1485.9 5287.46,1274.24 5075.79,1274.24 5075.79,850.91 4864.12,850.91 4864.12,1062.57 4652.46,1062.57 4652.46,1485.9 4864.12,1485.9 4864.12,1697.57 "/>
   <polygon class="fil5" points="4017.46,5719.23 4652.15,5719.15 5075.8,5719.15 5075.94,5296.04 4864.12,5295.88 4864.12,5507.56 4229.13,5507.56 4229.13,5295.88 4017.31,5296.04 "/>
   <polygon class="fil2" points="-4.2,1485.9 419.13,1485.9 419.13,1274.24 207.47,1274.24 207.47,427.57 -4.2,427.57 "/>
   <polygon class="fil2" points="5076.09,5083.67 5499.12,5084.23 5922.46,5084.23 5922.46,4872.56 5501.27,4872.77 4652.81,4872.21 4653.71,5083.12 "/>
   <polygon class="fil2" points="3383.09,5083.6 3593.57,5084.79 3592.96,4448.12 4017.81,4448.88 4017.05,4243.96 3382.46,4240.11 "/>
   <polygon class="fil2" points="2324.13,4237.57 2324.13,4025.9 2535.8,4025.9 2535.8,3602.57 2112.46,3602.57 2112.46,4237.57 "/>
   <polygon class="fil2" points="2747.46,639.24 2535.8,639.24 2535.8,1062.57 2747.46,1062.57 2747.46,850.91 2959.13,850.91 2959.13,639.24 3170.79,639.24 3170.79,427.57 2747.46,427.57 "/>
   <polygon class="fil2" points="1689.13,3390.9 1900.8,3390.9 1900.8,3179.23 2112.46,3179.23 2112.46,2755.9 1689.13,2755.9 "/>
   <polygon class="fil5" points="5075.94,5296.04 5287.46,5295.9 5287.46,5719.23 5499.12,5719.23 5499.12,5084.23 5076.09,5083.67 "/>
   <polygon class="fil1" points="4864.12,850.91 5075.79,850.91 5075.79,1274.24 5287.46,1274.24 5287.46,639.24 4864.12,639.24 "/>
   <polygon class="fil2" points="3805.79,1274.24 4229.13,1274.24 4229.13,850.91 3805.79,850.91 "/>
   <polygon class="fil2" points="1477.46,3814.23 1265.8,3814.23 1265.8,4237.57 1477.46,4237.57 1477.46,4025.9 1689.13,4025.9 1689.13,3602.57 1477.46,3602.57 "/>
   <polygon class="fil2" points="3594.13,2120.9 4017.46,2120.9 4017.46,1697.57 3594.13,1697.57 "/>
   <polygon class="fil2" points="4229.13,2120.9 4440.79,2120.9 4440.79,1909.24 4652.46,1909.24 4652.46,1697.57 4440.79,1697.57 4440.79,1485.9 4229.13,1485.9 "/>
   <polygon class="fil2" points="1477.46,2544.24 1265.8,2544.24 1265.8,2755.9 1054.13,2755.9 1054.13,3179.23 1265.8,3179.23 1265.8,2967.57 1477.46,2967.57 "/>
   <polygon class="fil4" points="4652.15,5932.37 4652.15,5719.15 4017.46,5719.23 3806.43,5718.59 3807.06,5929.43 "/>
   <polygon class="fil2" points="5075.81,5931.1 5291.59,5927.09 5289.57,6151.53 5287.66,6354.43 5499.12,6354.23 5499.12,5719.23 5287.46,5719.23 5075.8,5719.15 "/>
   <polygon class="fil4" points="3383.09,5083.6 3382.46,4240.11 3172.06,4238.83 3172.06,5082.85 "/>
   <polygon class="fil6" points="4652.81,4872.21 5501.27,4872.77 5501.19,4669.87 4647.77,4665.59 "/>
   <polygon class="fil5" points="3597.9,2544.24 3597.47,2755.9 3382.46,2755.9 3382.46,2967.57 3805.79,2967.57 3802.3,2755.9 3798.4,2339.55 3596.23,2336.06 "/>
   <polygon class="fil2" points="632.59,4447.44 630.8,3814.23 419.13,3814.23 419.13,4449.55 "/>
   <polygon class="fil2" points="2960.11,2121.81 3170.79,2121.81 3170.79,1909.24 2535.8,1909.24 2535.8,2120.9 "/>
   <polygon class="fil7" points="4864.12,5295.88 4229.13,5295.88 4229.13,5507.56 4864.12,5507.56 "/>
   <polygon class="fil2" points="419.13,1485.9 419.13,1697.57 842.47,1697.57 842.47,1274.24 630.8,1274.24 630.8,1485.9 "/>
   <polygon class="fil2" points="1265.8,427.57 630.8,427.57 630.8,639.24 1265.8,639.24 "/>
   <polygon class="fil2" points="5710.79,2755.9 6134.12,2755.9 6134.12,2544.24 5922.46,2544.24 5922.46,2332.57 5710.79,2332.57 "/>
   <polygon class="fil2" points="5287.46,1274.24 5499.12,1274.24 5499.12,639.24 5287.46,639.24 "/>
   <polygon class="fil2" points="4229.13,427.57 4229.13,215.91 3594.13,215.91 3594.13,427.57 "/>
   <polygon class="fil2" points="6136.03,4236.3 6136.03,4662.8 6345.79,4660.9 6345.79,4025.9 6134.12,4025.9 "/>
   <polygon class="fil5" points="5710.79,4235.94 5710.79,3814.23 5288.45,3812.33 5289.66,4023.91 5501.11,4023.91 5501.11,4235.51 "/>
   <polygon class="fil5" points="5501.19,4669.87 5501.27,4872.77 5922.46,4872.56 5922.46,4663.8 5708.8,4662.89 5708.58,4451.22 5501.1,4451.22 "/>
   <polygon class="fil2" points="1055.92,4659.11 1057.7,4445.44 632.59,4447.44 630.8,4661.12 "/>
   <polygon class="fil2" points="1479.25,4870.78 1481.04,4657.11 1055.92,4659.11 1054.13,4872.78 "/>
   <polygon class="fil2" points="1902.58,5082.44 1904.37,4868.77 1479.25,4870.78 1477.46,5084.45 "/>
   <polygon class="fil8" points="3170.79,2755.9 3382.46,2755.9 3597.47,2755.9 3597.9,2544.24 3170.79,2544.24 "/>
   <polygon class="fil9" points="4652.15,5932.37 5075.81,5931.1 5075.8,5719.15 4652.15,5719.15 "/>
   <polygon class="fil2" points="5287.46,2120.9 5075.79,2120.9 5075.79,2544.24 5287.46,2544.24 "/>
   <polygon class="fil2" points="4864.12,639.24 5287.46,639.24 5287.46,427.57 4864.12,427.57 "/>
   <polygon class="fil2" points="4864.12,850.91 4864.12,639.24 4440.79,639.24 4440.79,850.91 "/>
   <polygon class="fil2" points="6345.79,3179.23 6345.79,2755.9 6134.12,2755.9 6134.12,3179.23 "/>
   <polygon class="fil2" points="2535.8,3602.57 2959.13,3602.57 2959.13,3390.9 2535.8,3390.9 "/>
   <polygon class="fil5" points="6134.12,4025.9 6345.79,4025.9 6557.45,4025.9 6557.45,3814.23 6134.12,3814.23 "/>
   <polygon class="fil2" points="207.47,427.57 630.8,427.57 630.8,215.91 207.47,215.91 "/>
   <polygon class="fil10" points="3170.79,2544.24 3597.9,2544.24 3596.23,2336.06 3170.8,2332.14 "/>
   <polygon class="fil11" points="5075.8,5719.15 5287.46,5719.23 5287.46,5295.9 5075.94,5296.04 "/>
   <polygon class="fil11" points="3806.43,5718.59 4017.46,5719.23 4017.31,5296.04 3805.79,5295.9 "/>
   <polygon class="fil4" points="3806.43,5718.59 3805.79,5295.9 3594.76,5295.26 3595.4,5717.85 "/>
   <polygon class="fil2" points="2958.92,5719.43 2954.44,5300.59 2747.26,5296.1 2747.46,5719.19 "/>
   <polygon class="fil2" points="4441.14,4660.55 4436.1,4453.92 4017.81,4448.88 4018.71,4659.78 "/>
   <polygon class="fil6" points="4017.81,4448.88 4436.1,4453.92 4437.3,4241.06 4017.05,4243.96 "/>
   <polygon class="fil6" points="2958.92,5719.43 3166.1,5723.92 3161.81,5305.61 2954.44,5300.59 "/>
   <polygon class="fil6" points="3593.92,6354.43 4008.49,6356.34 4008.48,6152.04 3589.43,6147.25 "/>
   <polygon class="fil2" points="3805.79,2967.57 4017.46,2967.57 4017.46,2755.9 3802.3,2755.9 "/>
   <polygon class="fil2" points="4229.13,2332.57 4229.13,2120.9 4017.46,2120.9 4017.46,2332.57 "/>
   <polygon class="fil1" points="3170.79,3179.23 3170.79,3390.9 3382.46,3390.9 3382.46,3179.23 "/>
   <polygon class="fil2" points="5287.46,1909.24 5287.46,1697.57 5075.79,1697.57 5075.79,1909.24 "/>
   <polygon class="fil2" points="5710.79,2755.9 5499.12,2755.9 5499.12,2967.57 5710.79,2967.57 "/>
   <polygon class="fil2" points="3170.79,2967.57 3382.46,2967.57 3382.46,2755.9 3170.79,2755.9 "/>
   <polygon class="fil2" points="1477.46,2544.24 1689.13,2544.24 1689.13,2332.57 1477.46,2332.57 "/>
   <polygon class="fil2" points="5710.79,2332.57 5710.79,2120.9 5499.12,2120.9 5499.12,2332.57 "/>
   <polygon class="fil2" points="6345.79,3390.9 6557.45,3390.9 6557.45,3179.23 6345.79,3179.23 "/>
   <polygon class="fil2" points="2324.13,3179.23 2535.8,3179.23 2535.8,2967.57 2324.13,2967.57 "/>
   <polygon class="fil2" points="419.13,3179.23 630.8,3179.23 630.8,2967.57 419.13,2967.57 "/>
   <polygon class="fil2" points="1054.13,1909.24 1054.13,1697.57 842.47,1697.57 842.47,1909.24 "/>
   <polygon class="fil2" points="1265.8,1697.57 1477.46,1697.57 1477.46,1485.9 1265.8,1485.9 "/>
   <polygon class="fil2" points="1900.8,2332.57 2112.46,2332.57 2112.46,2120.9 1900.8,2120.9 "/>
   <polygon class="fil2" points="630.8,3814.23 842.47,3814.23 842.47,3602.57 630.8,3602.57 "/>
   <polygon class="fil2" points="4440.79,639.24 4440.79,427.57 4229.13,427.57 4229.13,639.24 "/>
   <polygon class="fil2" points="3170.79,3179.23 3170.79,2967.57 2959.13,2967.57 2959.13,3179.23 "/>
   <polygon class="fil2" points="5287.46,2120.9 5499.12,2120.9 5499.12,1909.24 5287.46,1909.24 "/>
   <polygon class="fil5" points="3805.79,5295.9 4017.31,5296.04 4017.14,5084.53 3805.79,5084.94 "/>
   <polygon class="fil2" points="3594.76,5295.26 3805.79,5295.9 3805.79,5084.94 3593.57,5084.79 "/>
   <polygon class="fil2" points="5076.7,3813.32 5288.45,3812.33 5287.46,3602.57 5077.7,3600.66 "/>
   <polygon class="fil2" points="5922.46,4872.56 6133.78,4872.56 6136.03,4662.8 5922.46,4663.8 "/>
   <polygon class="fil4" points="3594.76,5295.26 3593.57,5084.79 3383.09,5083.6 3383.73,5294.51 "/>
   <polygon class="fil5" points="4437.3,4241.06 4650.45,4234.59 4650.47,4027.89 4443,4027.89 "/>
   <polygon class="fil5" points="4229.13,3174.29 4229.13,2967.57 4017.46,2967.57 4017.46,3177.24 "/>
   <polygon class="fil2" points="5077.7,3600.66 5075.78,3391.59 4867.94,3386.95 4867.94,3598.75 "/>
   <polygon class="fil2" points="3170.59,5931.1 3166.1,5723.92 2958.92,5719.43 2959.13,5930.86 "/>
   <polygon class="fil2" points="3382.25,6142.77 3377.77,5935.59 3170.59,5931.1 3170.79,6142.52 "/>
   <polygon class="fil2" points="3593.92,6354.43 3589.43,6147.25 3382.25,6142.77 3382.46,6354.19 "/>
   <polygon class="fil5" points="5076.7,3813.32 4866.12,3816.74 4866.11,4023.91 5073.8,4023.91 "/>
   <polygon class="fil2" points="4652.81,4872.21 4647.77,4665.59 4441.14,4660.55 4442.04,4871.45 "/>
   <polygon class="fil5" points="4866.11,4447.24 5073.59,4447.24 5073.8,4239.56 4866.33,4239.56 "/>
   <polygon class="fil5" points="4231.12,3812.24 4438.59,3812.24 4438.8,3604.56 4231.33,3604.56 "/>
   <polygon class="fil6" points="3170.59,5931.1 3377.77,5935.59 3373.48,5728.94 3166.1,5723.92 "/>
   <polygon class="fil6" points="2747.26,5296.1 2954.44,5300.59 2950.14,5093.94 2742.77,5088.92 "/>
   <polygon class="fil6" points="3382.25,6142.77 3589.43,6147.25 3585.14,5940.61 3377.77,5935.59 "/>
   <polygon class="fil6" points="4441.14,4660.55 4647.77,4665.59 4643.47,4458.94 4436.1,4453.92 "/>
   <polygon class="fil6" points="2742.77,5088.92 2738.49,4881.54 2533.68,4881.54 2535.67,5084.64 "/>
   <polygon class="fil6" points="5084.76,6356.34 5287.66,6354.43 5289.57,6151.53 5084.76,6151.53 "/>
  </g>
 </g>
</svg>
