<?xml version="1.0" encoding="UTF-8"?>
<!DOCTYPE svg PUBLIC "-//W3C//DTD SVG 1.1//EN" "http://www.w3.org/Graphics/SVG/1.1/DTD/svg11.dtd">
<!-- Creator: CorelDRAW 2021 (64 Bit) -->
<svg xmlns="http://www.w3.org/2000/svg" xml:space="preserve" width="40mm" height="40mm" version="1.1" style="shape-rendering:geometricPrecision; text-rendering:geometricPrecision; image-rendering:optimizeQuality; fill-rule:evenodd; clip-rule:evenodd"
viewBox="0 0 4000 4000"
 xmlns:xlink="http://www.w3.org/1999/xlink"
 xmlns:xodm="http://www.corel.com/coreldraw/odm/2003">
 <defs>
  <style type="text/css">
   <![CDATA[
    .fil0 {fill:#5A4933}
   ]]>
  </style>
 </defs>
 <g id="Camada_x0020_1">
  <metadata id="CorelCorpID_0Corel-Layer"/>
  <path class="fil0" d="M1692.23 32.15c-2674.5,427.74 -1985.6,4376.98 635.31,3940.88 978.3,-162.78 1836.99,-1119.86 1636.56,-2310.34 -163.18,-969.33 -1116.25,-1815.35 -2271.87,-1630.54zm922.11 1115.31c-46.56,23.19 -55.4,12.5 -78.7,72.53 -59.43,153.11 91.38,266.26 218.23,203.93 169.35,-83.21 61.19,-376.43 -139.53,-276.46zm-1317.35 -460.05c-331.8,60.5 -597.24,317.06 -626.59,672.7 -11.47,138.9 -11.5,1180.27 6.47,1291.64 53.4,330.86 327.03,602.81 684.23,630.43 151.46,11.72 1190.9,11.42 1309,-9.76 318.75,-57.17 588.61,-329.29 615.69,-678.82 10.87,-140.35 10.63,-1178.58 -7.42,-1288.34 -54.3,-330.16 -326.82,-600.27 -684.64,-627.28 -151.66,-11.45 -1179.92,-11.88 -1296.74,9.43zm43.43 242.1c-163.95,25.57 -265.01,103.04 -338.82,203.49 -91.7,124.78 -92.6,256.85 -92.54,438.39 0.06,175.76 -10.85,951.61 6.69,1060 25.44,157.26 116.42,264.32 204.95,326.69 139.49,98.26 244.97,92.9 441.84,92.84 175.35,-0.06 953.94,10.72 1061.67,-6.83 161.41,-26.3 267.07,-115.35 330.67,-206.52 98.41,-141.06 91.57,-242.19 91.51,-439.46 -0.04,-174.01 10.54,-949.42 -6.42,-1056.03 -24.47,-153.82 -114.27,-260.94 -207.16,-328.65 -128.69,-93.81 -259.17,-90.87 -439.9,-90.83 -175.65,0.05 -942.13,-10.29 -1052.49,6.91zm500.34 394.75c-326.03,69.75 -611.7,381.88 -530.69,792.25 64.01,324.31 385.16,616.85 800.83,534.49 323.89,-64.18 612.87,-380.57 535.81,-787.33 -62.45,-329.63 -390.09,-628.37 -805.95,-539.41zm72.83 230.19c-586.62,93.82 -435.52,960.04 139.35,864.39 214.58,-35.7 402.93,-245.63 358.97,-506.75 -35.8,-212.61 -244.84,-398.18 -498.32,-357.64z"/>
 </g>
</svg>
