<?xml version="1.0" encoding="UTF-8"?>
<!DOCTYPE svg PUBLIC "-//W3C//DTD SVG 1.1//EN" "http://www.w3.org/Graphics/SVG/1.1/DTD/svg11.dtd">
<!-- Creator: CorelDRAW 2021 (64 Bit) -->
<svg xmlns="http://www.w3.org/2000/svg" xml:space="preserve" width="40mm" height="40mm" version="1.1" style="shape-rendering:geometricPrecision; text-rendering:geometricPrecision; image-rendering:optimizeQuality; fill-rule:evenodd; clip-rule:evenodd"
viewBox="0 0 4000 4000"
 xmlns:xlink="http://www.w3.org/1999/xlink"
 xmlns:xodm="http://www.corel.com/coreldraw/odm/2003">
 <defs>
  <style type="text/css">
   <![CDATA[
    .fil0 {fill:#283A10}
   ]]>
  </style>
 </defs>
 <g id="Camada_x0020_1">
  <metadata id="CorelCorpID_0Corel-Layer"/>
  <path class="fil0" d="M-6.6 1757.69l0 516.99c43.32,103.21 -36.46,737.56 248.91,954.59 87.22,66.33 149.32,96.05 282.84,116.07 552.93,82.86 1729.44,71.51 2313.53,49.74 199.49,-7.43 552.24,-15.83 729.25,-68.59 360.1,-107.34 380.97,-467.8 405.04,-793.12 5.67,-76.66 7.63,-335.57 20.43,-383.51l0 -415.35c-17.06,-42.06 -22.61,-300.27 -29.82,-373.22 -31.96,-323.37 -84.24,-621.52 -485.3,-690.05 -521.96,-89.18 -2490.56,-95.39 -2999.91,2.75 -388.42,74.83 -427.49,411.32 -456.85,716.62 -7.07,73.54 -10.89,324.43 -28.12,367.08zm1601.35 848.76l1038.45 -597.65 -901.52 -524.78c-40.88,-23.24 -92.38,-56.72 -137,-76.26l0.07 1198.69z"/>
 </g>
</svg>
