<?xml version="1.0" encoding="UTF-8"?>
<!DOCTYPE svg PUBLIC "-//W3C//DTD SVG 1.1//EN" "http://www.w3.org/Graphics/SVG/1.1/DTD/svg11.dtd">
<!-- Creator: CorelDRAW 2021 (64 Bit) -->
<svg xmlns="http://www.w3.org/2000/svg" xml:space="preserve" width="463.83mm" height="181.445mm" version="1.1" style="shape-rendering:geometricPrecision; text-rendering:geometricPrecision; image-rendering:optimizeQuality; fill-rule:evenodd; clip-rule:evenodd"
viewBox="0 0 46383 18144.5"
 xmlns:xlink="http://www.w3.org/1999/xlink"
 xmlns:xodm="http://www.corel.com/coreldraw/odm/2003">
 <defs>
  <style type="text/css">
   <![CDATA[
    .fil0 {fill:#202020}
    .fil1 {fill:#B3A289}
   ]]>
  </style>
 </defs>
 <g id="Camada_x0020_1">
  <metadata id="CorelCorpID_0Corel-Layer"/>
  <g id="_2630152152880">
   <rect class="fil0" x="-7.18" y="4.01" width="46383.02" height="18144.52"/>
   <path class="fil1" d="M11444.46 15471.59c61.75,-32.27 32.76,-14.25 60.71,0 -19.98,16.01 8.97,61.31 -60.71,0zm-668.09 -26.85l0 56.25c-57.06,-24.92 -21.53,29.75 -32.79,-26.14 -10.78,-53.5 13.14,-17.86 32.79,-30.11zm-221.21 47.46c-60.66,-50.56 -81.67,-94.9 -97.32,-175.3 50.49,42.79 66.84,85.18 97.32,175.3zm-161.08 74.24c-68.92,-26.32 -416.74,-268.42 -427.77,-332.32l427.77 332.32zm-412.9 -48.02c-96,-42.79 -90.08,-19.8 -126.9,-94.98 66.69,20.26 87.46,28 126.9,94.98zm-496.38 -125.22c-51.37,8 -68.21,11.42 -119.19,-14.17 -57.2,-28.72 -62.68,-52.4 -80.6,-79.46l199.79 93.63zm1441.46 -34.6c39.54,-82.52 -6.13,-27.98 72.6,-76.32 47.04,-28.89 24.26,-16.96 71.97,-40.3 -28.68,74.39 -57.76,87.32 -144.57,116.62zm-551.05 -67.62c-52.44,-22.36 -36.49,29.72 -60.13,-72.11 56.79,30.59 21.21,-25.83 60.13,72.11zm1792.44 -229.01l-26.81 -48.97c-137.41,5.56 -270.25,-33.41 -412.21,-40.25 -135.24,-6.5 -259.58,51.05 -399.02,59.9 615.21,-556.64 700.18,-401.44 939.08,-612.75 -866.68,42.26 -716.94,198.6 -1050.07,269.24 56.01,-71.94 114.58,-123.97 172.94,-201.28 109.08,-144.5 256.89,-279.91 397.71,-403.19l156.35 -141.5c35.07,-38.48 27.76,-32.57 52.94,-69.95 -629.4,204.58 -713.75,408.42 -966.01,563.86 29.32,-227.12 257.31,-874.77 354.55,-1021.61l-12.38 -30.76c-10.82,-3.08 -6.19,5.98 -25.09,30.87l-712.11 982.99c-89.81,-226.42 111.99,-1158.75 101.5,-1452.52 -16.13,70.67 -231.15,494.33 -282.72,607.02 -77.63,169.64 -111.22,568.19 -141.32,778.62 -188.14,-187.13 -309.25,-538.4 -497.89,-719.91l247.88 1029.26 -780.63 -806.57c53.89,155.2 190.75,400.57 266.65,551.28 70.25,139.53 222.98,404.19 256.63,527.97 -614.9,-320.23 -536.12,-400.22 -883.88,-717.86 -6.96,-4.55 -35.98,-21.66 -44.91,-26.69 -2.61,-1.46 -11.88,-0.67 -13.83,-6.89 -1.88,-5.95 -8.98,-4.04 -13.38,-6.25l-6.69 17.73c40.05,-1.14 26.43,-9.14 27.83,37.03 97.47,133.03 230.35,442.47 312.47,609.99 82.12,167.53 139.17,179.21 368.41,317.24 23.12,13.92 56.63,31.84 72.41,42.06 40.24,26.09 22.69,14.39 41.47,29.48 47.76,38.37 11.91,9.75 38.95,35.83 -422.71,-83.9 -467.6,-116.2 -773.21,-355.8l-175.18 -144.4c-30.93,-31.54 -11.31,-6.53 -29.74,-34.54 -61.44,60.75 -37.05,4.32 93.33,199.64 78.74,117.96 315.8,487.98 396.67,518.64 116.04,44.01 901.72,227.11 1007.66,225.41 694.19,-11.18 1421.92,-15.25 2035.65,-407.33l-900.06 106.71c122.75,-50.66 333.96,-251.69 806.06,-291.75zm-1193.82 -53.09c-3.1,3.29 -8.54,7.36 -11.62,10.62 -3.06,3.25 -7.98,7.85 -10.97,11.13l-29.82 37.15c-53.38,66.89 -97.41,186.43 -167.07,218.96l219.48 -277.86zm-494.7 -14.87c23.64,38.11 27.04,-31.56 22.06,87.46 -4.71,112.64 -3.59,35 -23.27,61.15 -37.59,-66.86 -33.11,-94.45 1.21,-148.61zm-310.92 259.34c-45.52,-49.7 -69.02,-53.18 -102.47,-131.5 55.77,25.2 32.14,-4.94 83.1,64.27 43.36,58.88 25.2,-6.16 19.37,67.23zm841.89 -38.71c20,-44.62 31.29,-50.24 66.82,-80.3 85.77,-72.58 17.04,-22.54 98.32,-60.88 -33.45,60.17 -61.83,64.2 -165.14,141.18zm-1830.52 -34.96c-115.28,-12.08 -110.61,2.75 -117.83,-88.68l117.83 88.68zm1116.39 -107.43c-78.44,-56.94 -158.05,-221.05 -197.31,-303.9 62.65,22.65 64.02,51.53 106.11,129.16l91.2 174.74zm361.84 -82.85c3.99,62.1 -4.66,23.48 -19.84,48.45 -46.37,-67.06 -30.6,-43.13 0,-103.75 9.65,19.05 16.3,0.24 19.84,55.3zm-974.71 4.82c-101.07,-29.88 -146.24,-57.79 -190.43,-126.06 73.08,17.1 150.6,65.48 190.43,126.06zm383.73 -31.82c-52.41,-31.96 -89.58,-90.52 -109.72,-148.2 54.95,24.08 98.89,71.03 109.72,148.2zm776.93 -239.84c8.03,13.59 33.62,-42.05 10.31,47.98 -30.56,118 5.81,11.07 -49.99,63.02l39.68 -111zm-1545.34 -7.67c-77.48,-33.68 -84.36,-32.4 -132.24,-135.02l77.7 69.11c3.17,3.71 7.48,9.04 10.52,12.64l44.02 53.27zm1332.29 -141.32c17.06,25.64 36.79,-42.67 24.21,87.75 -11.66,120.95 -18.97,60.09 -42.33,86.91l18.12 -174.66zm-838.32 52.93c-40.73,-57.25 -59.52,-86.33 -66.23,-158.54 53.31,44.99 101.22,136.18 126.66,217.64l-60.43 -59.1zm1174.82 -68.85l-59.8 53.73c7.25,-60.32 6.15,-42.18 59.8,-53.73zm-516.66 97.61c49.32,201.24 26,94.18 2.44,135.11l-60.28 -221.78c-3.88,-69.59 7,-47.03 24.97,-78.86 11.57,50.45 20.23,113.95 32.87,165.53zm677.29 -116.73c16.66,-54.65 26.41,-38.87 74.02,-41.17 -7.87,66.39 8.96,86.23 -74.02,41.17zm-358.52 -170.1c16.47,-35.12 17.08,-26.13 32.93,-45.33 -12.88,115.27 18.04,55.7 -48.41,95.58 9.68,-31.87 -1.39,-14.28 15.48,-50.25zm-669.96 -66.86l27.84 110.5c-29.09,-24.31 -26.85,-2.96 -44.28,-53.44 -32.87,-95.17 -1.88,-34.57 16.44,-57.06zm-517.57 -2c-62.35,-26.29 -15.43,15.17 -52.71,-57.86 65.91,41.37 34.73,-22.67 52.71,57.86zm1860.88 0.97c16.07,-65.26 14.76,-34.04 72.3,-65.09 -38.62,68.68 15.05,33.35 -72.3,65.09zm-503.22 -17.43c-20.59,-31.49 -26.04,39.22 -15.08,-54.64 6.5,-55.63 45.03,-101.69 87.85,-130.33l-72.77 184.97zm-497.44 -433.63c7.59,-46.2 3.23,-23.15 18.25,-48.59 18.87,83.53 22.38,179.06 -25.65,248.85l7.4 -200.26z"/>
   <g>
    <path class="fil1" d="M38001.78 13648.9c9.63,232.14 75.74,224.31 -49.72,384.86 -1.66,-2.7 -83.76,25.59 -63.91,-165.38 26.52,-255.37 -34.07,-57.49 113.63,-219.48zm2937.29 -1830.01l-52.48 -15.72 486.4 1047.6c138.98,-56 38.43,-35.75 115.33,-156.44 152.52,312.93 -219.71,29.61 121.55,279.87 330.81,242.6 177.9,-93.31 519.77,553.99 77.17,146.11 140.33,191.21 111.52,344.86 -385.33,-763.08 -328.82,-709.43 -860.59,-974.11 -1240.87,-617.62 -999.89,-494.31 -2446.37,-728 -507.39,-81.98 -1652.69,113.9 -2192.05,188.19 -373.14,51.42 -322.4,111.99 -675.28,583.64 -247.36,330.61 -233.02,454.72 -307.37,910.17 921.43,25.75 341.72,-441.98 1840.67,490.02 387.83,241.14 409.79,213.9 559.05,701.78 154.03,503.48 -91.9,521.35 -252.89,848.17l3912.73 -20.1c-43.73,-272.24 -215.19,-98.88 -204.47,-683.75 382.71,-306.32 112.8,-199.82 525.28,-312.33 480.62,-131.09 279.89,-788.08 129.29,-886.7 10.11,-15.67 27,-55.83 32.86,-45.3l167.89 -238.03c299.72,-450.07 397.33,-309.96 731.72,-663.76l-530.15 120.21c105.17,-237.88 165.04,-217.2 330.52,-415.85 139.01,-166.85 161.35,-241.1 346.73,-366.5l-938.4 566 476.22 -1239.19c-234.4,233.52 -491.16,708.44 -712.65,1060.32l83.15 -2072.05c-76.85,288.26 -136.2,559.81 -197.19,873.6l-159.13 795.89c-5.72,15.87 -13.74,32.99 -19.4,47.11l-44.51 91.51c-45.76,-236.46 -293.37,-1751.44 -414.59,-1961.04l129.58 1962.43c-174.09,-147.2 -450.54,-568.26 -612.74,-686.49zm43.75 1567.32c122.79,79.88 40.83,-23.53 117.59,96.11l145.64 437.61c-149.3,-146.47 -189.1,-277.06 -263.23,-533.72zm-3508.26 617.63l91.92 -426.51c107.82,143.46 124.86,393.5 -91.92,426.51zm3865.05 -463.18c152.3,18.3 30.9,-109.09 165.56,135.96 51.33,93.39 63.73,132.26 92.24,246.16 -190.86,-117.98 -151.43,-185.09 -257.8,-382.12zm-1799.71 -193.48c203.83,39.89 2.3,-26.45 139.95,30.57 168.47,69.76 81.67,35.76 130.89,73.15 -272.01,113.29 -240.82,-71.61 -270.84,-103.72zm2079.09 -14.88c150.92,43.42 71.94,-82.23 273.03,309.2 -132.63,-52.26 -91,29.73 -273.03,-309.2zm-1549.89 40.13c123.74,-34.08 48.41,-67.49 186.5,-16.99 278.77,101.9 75.49,35.24 190.99,129.09l-377.49 -112.1zm2146.08 17.58c116.62,-215.55 158.76,-270 372.3,-393.87 -71.93,181.5 20.68,70.33 -176.01,241.61 -70.36,61.27 -106.38,86.78 -196.29,152.26zm-3485.49 -212.29c54.96,-54.91 -3.92,-104.06 206.6,-69.65 336.35,54.98 167.86,59.04 246.55,120.54l-453.15 -50.89zm-1842.2 203.08c22.11,-122.14 -5.2,-107.12 179.38,-334.49 84.83,-104.51 -15.76,-10.09 104.44,-94.25 -74.03,194.2 -128.87,261.97 -283.82,428.74zm697.68 -346.22c164.82,123.49 114.39,41.15 146.04,320.74 -52.19,-66.4 -38.6,-22.27 -88.09,-133.57 -4.91,-11.03 -43.6,-153.92 -57.95,-187.17zm3092.27 88.74c-216.07,-75.47 -106.49,22.29 -216.92,-157.31l216.92 157.31zm280.98 -160.55c-88.29,-69.34 -22.9,-6.19 -78.98,-100.45l438.59 156.65c-0.1,0.07 -33.4,199.97 -359.61,-56.2zm-4858.99 360.32c41.34,-185.14 105.95,-284.43 392.91,-388.78 -65.83,169.83 -197.93,291.07 -392.91,388.78zm5903.28 -487.15c42.52,-269.43 14.13,-73.18 84.71,-169.88 -1.04,220.59 27.18,151.51 -59.67,313.17 -6.03,-15.39 -48.23,3.65 -25.04,-143.29zm-2852.5 75.54c173.34,-89.9 361.29,-45.03 661.92,-1.53l139.56 39.4c6.69,-12.08 23.97,14.59 35.83,22.07 -134.87,68.47 -515.64,44.25 -656.78,16.03 -20.42,-4.07 -88.23,-25.75 -102.28,-30.14 -10.94,-3.41 -33.55,-3.65 -41.13,-21.96 -7.17,-17.35 -24.74,-15.96 -37.12,-23.87zm-2680.38 406.22c44.36,-224.02 283.07,-376.08 488.07,-468.7 -96.21,168.8 -339.59,361.14 -488.07,468.7zm2123.92 -394.55l-646.12 -11.37c23.5,-170.59 534.81,-83.95 646.12,11.37zm-1175.76 -192.38c-242.31,-30.63 -66.72,68.86 -184.85,-178.61 182.54,114.81 89.5,-75.23 184.85,178.61zm2630.3 -123.6c-10.21,-5.9 -32.58,-9.62 -39.86,-31.01 -7.51,-22.13 -26.77,-22.29 -29.46,-60.45l461.02 193.28 -391.7 -101.82zm-362.49 120.37c-254.5,-3.33 -659.57,-31.14 -830.55,-158.87 228.24,-19.59 269.61,4.66 478.06,39.93 258.23,43.7 210.16,7.32 352.49,118.94zm-2638.18 -229.6c-38.05,68.95 29.07,88.98 -156.12,148.1 -397.39,126.87 -107.1,37.28 -224.01,-60.72l380.13 -87.38zm825.19 126.54c-124.44,-12.99 -129.79,4.13 -254.56,-36.97 -237.17,-78.12 -61.37,-28.12 -139.32,-101.31 133.9,2.33 44.53,-33.67 208.53,18.88 323.24,103.55 27.59,-7.05 185.35,119.4zm65.3 -128.12c236.27,-172.14 1098.06,-81.4 1138.33,-64.37 -229.86,112.42 -843.18,76.23 -1138.33,64.37z"/>
    <path class="fil1" d="M34615.3 15249c106.43,-40.93 225.85,10.43 335.18,62.57l85.64 61.11c-223.16,-17.41 -284.48,4.76 -420.82,-123.68zm681.16 -335.52c-100.24,284.97 17.77,43.51 -120.82,156.66 67.3,-291.42 -22.37,-124.55 120.82,-156.66zm-759.82 157.61c26.71,-163.22 53.89,-171.49 174.74,-241.34 -55.51,119.1 -63.48,161.24 -174.74,241.34zm1499.05 -177.34c-177.58,58.19 -53.98,55.88 -205.05,-4.38 78.17,-55.35 -28.41,-41.78 125.84,-53.52 264.02,-20.1 -69.76,-70.83 79.21,57.9zm1290.7 -35.76c-254.93,-34.88 -167.62,48 -279.72,-145.25 112.63,26.73 24.11,-16.54 146.01,41.39 128.34,61.03 55.36,35.1 133.71,103.86zm-2409.2 69.44c48.56,-272.96 81.03,-201.82 186.16,-264.18 -132.79,344.9 -103.35,238.46 -186.16,264.18zm2663.93 -146.59c-235.34,-41.98 -103.87,10.4 -147.62,-130.06l147.62 130.06zm-973.67 -89.35c-114.94,60.13 -71.75,55.69 -200.21,-22.02l200.21 22.02zm376.12 -104.01c-223.84,-5.63 -107.48,38.31 -150.41,-109.35l150.41 109.35zm-1476.61 -73.35l152.61 15.63c-191.19,151.16 -125.51,22.02 -152.61,-15.63zm-524.12 -117.89l-127.83 187.64c-8.07,-12.03 -37.26,20.77 -55.49,31.83 57.33,-245.23 22.55,-131.99 183.32,-219.47zm2090.96 -50.05c114.09,36.73 205.72,90.72 251.3,202.87l-373.25 -205.74c91.19,-33.66 -19.4,-42.62 121.95,2.87zm-714.08 -116.11c15.05,-5.76 35.8,-20.25 43.14,-21.77l76.88 0c4.82,-13.72 21.81,15.07 33.26,21.77l-113.97 31.06c-5.91,-15.82 -25.51,-21.63 -39.31,-31.06zm-1039.39 17.4c154.74,-14.55 593.63,-78.17 703.04,-25.35 -97.18,63.08 -151.21,91.47 -303.88,118.45 -357.08,63.08 -359.4,-61.18 -399.16,-93.1zm2778.83 1268c-32.89,-212.29 -113.34,-460 -186.85,-644.73 -121.04,-304.17 -214.06,-271.58 -586.36,-492.67 -976.92,-580.12 -482.53,-463.39 -1979.25,-237.54 -351.05,52.98 -405.28,9.55 -560.21,219.34 -201.33,272.6 -534.84,690.71 -451.11,959.01 170.57,546.67 264.2,559.77 734.94,777.49 324.15,149.94 1690.96,-2.41 2034.05,-71.24 573.7,-115.07 639.19,-340.56 994.79,-509.66z"/>
    <path class="fil1" d="M42334.59 15308.94c38.72,-27.1 32.53,-98.89 184.58,0 -97.17,49.61 -5.22,105.3 -184.58,0zm344.86 -222.3c132.72,31.36 137.21,41.27 245.16,104.88l110.62 68.86c10.15,6.28 47.71,28.44 63.77,40.3 -52.21,31.74 88,132.33 -203.25,-10.47 -244.28,-119.76 -174.15,-92.12 -216.3,-203.57zm-887.74 469.06c260.64,452.37 368.48,304.88 1387.61,287.69l234.55 -289.39c-246.18,-421.74 -256.94,-458.51 -768.57,-609.24l-236.91 -4.9 -210.37 -7.1 -240.34 125.88c-8.19,7.41 -19.7,28.44 -25.65,35.08 -6.37,7.12 -12.4,53.42 -16.48,43.52 -4.3,-10.45 -7.26,31.94 -11.84,47.65l298.1 -95.62c189.76,-24.97 200.55,21.8 228.8,39.86 -213.05,157.84 -539.75,69.3 -656.09,74.5l17.19 352.07zm1368.08 -1041.55c0,100.51 20.04,64.27 -101.13,65.12l47.66 -2.38c-16.23,10.76 -35.99,24.16 -48.12,33.08l-200.09 159.93c39.96,-358.66 43.29,-255.95 278.13,-323.05 22.32,-475.61 335.06,-942.22 433.77,-1418.59 -192.55,341.16 -586.55,1141.79 -810.47,1429.74l-139.52 -692.31 -116.16 862.8 -22.94 227.51c252.32,-8.42 119.35,-13.35 174.98,57.12 418.27,105.12 473.27,311.53 999.6,338l-295.03 -208.77 377.92 -90.2c-216.89,-37.89 -356.39,-57.89 -520.19,-205.36 101.22,-87.53 552.83,-460.39 663.55,-524.53l-721.96 291.89z"/>
   </g>
   <g>
    <path class="fil1" d="M7436.42 14232.1c529.47,136.84 -96.33,40.25 480.94,101.87 5.32,0.55 20.03,5.98 24.07,6.66 3.9,0.65 15.06,5.63 22.51,8.68 -96.39,60.74 -119.47,69.25 -267.91,46.28 -188.45,-29.17 -236.63,-137.7 -259.61,-163.49zm-5506.29 12.4c-59.51,-62.04 776.98,-458.35 870.93,-487.12 -92.1,125 -258.22,161.82 -415.73,258.26 -180.88,110.73 -303.72,145.66 -402.67,283.61l-52.53 -54.75zm764.39 31.71c-1.42,-137.76 66.34,-123.12 153.12,-239.34 -8.84,168.7 -68.58,151.17 -153.12,239.34zm418 -116.45c6.49,-18.12 19.96,-68.09 32.11,-86.13 72.16,-107.18 34.14,-48.3 98.45,-99.2 -40.74,300.29 -88.78,155.35 -130.56,185.33zm5095.72 40.64l237.62 -288.92c-40.23,172.33 -93.43,215.06 -237.62,288.92zm-471.51 -95.64c41.62,-125.45 -81.95,-41.75 132.06,-134.55 -60.63,198.59 23.81,51.92 -132.06,134.55zm420.84 -407.03c66.87,34.5 43.44,0.57 118.69,65.47 105.1,90.64 37.38,-47.85 48.44,98.55 -153.21,-165.99 -150.97,66.91 -167.13,-164.02zm-812.77 39.2c10.7,211.58 144.66,-136.7 -60.53,61.78l17.02 -146.56c70.98,76.34 37.32,-37.77 43.51,84.78zm-4241.07 -8.21c145,-292.91 1229.49,-88.76 1351.84,6.53l-700.57 -66.24c-249.33,-9.89 -423.11,26.92 -651.27,59.71zm5364.64 34.79c-41.66,-35.46 -213.16,76.18 -41.63,-192.28 71.62,98.49 47.64,24.78 41.63,192.28zm-5911.87 -90.87c-80.32,31.07 -23.4,31.44 -87.56,44.71 -242.1,50.14 -49.63,17.06 -115.96,-43.62l203.52 -1.09zm3130.89 -119.44c152.35,-76.23 365.86,156.27 426.42,290.15 -12.01,-5.37 -208.61,-85.63 -209.67,-86.37 -162.8,-113.45 -32.56,-31.97 -40.44,-113.83l-176.31 -89.95zm-3178.32 0c75.16,-77.58 -42.17,-62.14 123.02,-66.76 179.16,-5 130.71,65 132.77,66.76 -35.64,24.73 58.88,47.46 -133.95,52.42 -207.41,5.34 -88.68,-24.64 -121.84,-52.42zm751.5 -140.48c5.61,-4.48 -68.91,-88.42 129.57,-19.64 144.76,50.17 78,33.2 118.22,112.86l-247.79 -93.22zm432.97 32.2c-219.31,-75.6 -78.57,-8.02 -124.87,-116.93 203.75,66.98 102.69,10.75 124.87,116.93zm984.16 -2121.69c11.53,-11.82 25.78,-20.8 28.09,-40.81 2.28,-19.86 28.38,-17.09 39.81,-28.81l1307.49 1778.65c182.14,270.07 222.75,203.65 133.56,288.04l-1508.95 -1997.07zm112.74 1994.59c94.21,-33.73 194.14,-34.6 317.24,-53.87 327.06,-51.19 151.88,-50.55 245.21,18.44l-467.81 69.72c-95.76,-9.06 -47.39,-8.71 -94.64,-34.29zm2718.91 -4.45c-15.92,-159.16 -39.83,-100.98 38.82,-207.8 12.64,23.52 36.8,-37.47 17.84,85.52 -25.85,167.73 -22.43,72.26 -56.66,122.28zm-2655.51 -389.51c-220.12,26.75 -41.05,8.36 -109.24,-26.26 114.17,-74.34 108.68,-57.78 264.12,-42.62 -59.67,44.61 -11.61,51.46 -154.88,68.88zm1526.95 -524.98c46.15,-375.47 -9.2,-72.09 125.09,-203.49 -12.99,152.49 -9.58,257.65 -81.61,360.11 -11.85,-19.81 -61.44,-10.52 -43.48,-156.62zm-2175.85 237.32c84.53,-134.54 -18.64,-36 129.47,-147.85 110.11,-83.15 19.92,-19.97 137.15,-72.43 -76.73,160.54 -97.92,151.03 -266.62,220.28zm-347.11 -212.6c139.66,-119.46 393.77,-96.27 599.59,-94.03 275.3,2.99 447.4,-48.12 617.14,47.99l-1216.73 46.04zm-296.21 -189.62c7.56,-15.05 26.16,18.81 39.52,27.83l-181.39 -19.82c45.22,-23.41 7.13,-30.14 103.6,-26.99 8.69,0.29 31.58,32.28 38.27,18.98zm190.39 -579.71c113.86,-171.21 127.77,-108.33 267.37,-177.42 -8.13,13.19 -15.47,31.1 -22.92,40.43 -99.18,124.49 -68.33,95.21 -244.45,136.99zm2157.13 282.44c-103.59,-175.91 -47,-389.39 -59.44,-557.23 -17.88,-241.13 -110.11,-350.08 -24.8,-521.57 24.4,208.8 179.32,883.74 84.24,1078.8zm75.02 -646.57c31.15,-170.24 55.43,-114.54 65.47,-130.51 19.86,37.86 66.32,-66.56 37.87,126.44 -34.53,234.24 -43.49,81.38 -84.69,122.93 -26.33,-62.28 -51.59,61.16 -18.65,-118.86zm-3021.8 15c129.98,-135.45 841.32,-333.32 1057.49,-200.2 -226.58,34.47 -342.31,28.38 -574.45,81.08 -171.55,38.94 -320.76,97.09 -483.04,119.12zm2304.6 -429.77c-17.92,-150.14 -24.86,-154.48 28.57,-299.48l64.79 596.94 -93.36 -297.46zm-2344.96 -565.81c-49.8,65.33 87.16,79.35 -155.11,106.6 -116.99,13.16 -98.43,-27.62 -117.16,-38.03 71.51,-88.33 118.57,-60.42 272.27,-68.57zm404.83 -130.8c-135.04,73.52 -542.45,-4.59 -719.02,-20.57 39.64,-130.69 617.1,-3.89 719.02,20.57zm976.49 -515.37c143.41,144.27 130.34,267.15 51.83,377.77l-51.83 -377.77zm-567.73 -400.53c-61.9,-132.28 -30.66,-74.15 -77.48,-184.22 188.98,122.05 300.42,432.34 312.44,663.54l-234.96 -479.32zm-256.87 36.31c-128.64,-70.78 -140.14,-78.31 -182.35,-235.89 105.34,60.93 112.22,128.86 182.35,235.89zm554.28 1200.46c-124.11,-57.98 -255.86,-256.29 -470.77,-450.49l-1415.55 -1282.2c91.9,50.67 33.99,15.25 103.57,61.93 312.73,209.81 1676.43,1517.32 1782.75,1670.76zm862.54 3246.81c-381.52,-55.56 -823.52,-316.25 -1121.74,-493.18 -278.78,-165.38 -286.05,-131.06 -633.57,-97.07 -976.45,95.52 -725,-89.01 -1099.48,650.63l-238.27 467.36c-63.3,183.2 -47.5,53.15 -0.09,119.19 293.05,157.9 1486.05,165.32 1823,58.98 565.74,-178.57 914.09,-359.34 1525.61,-490.8l-217.5 -222.32c804.16,280.85 1395.78,456.39 1686.25,1114.98 210.89,478.12 4.4,617.38 366.47,543.47 17.6,-36.73 22.24,-30.07 30.19,-110.89 21.37,-217.23 -202.13,-769.74 132.53,-915.06 219.65,-21.29 543.42,204.11 773.73,180.15 65.77,-6.84 516.2,-292.07 613.21,-385.2 155.3,-149.1 216.3,-673.06 180.1,-756.66 -39.97,-92.31 -395.62,-473.07 -480.76,-571.64 -862.09,-5 -767.63,-61.25 -1155.02,482.89 -161.57,226.94 -77.97,346.95 -30.14,643.53 56.07,347.71 -32.27,343.44 -206.18,529.24 -132.44,-296.04 -311.54,-390.45 -415.17,-793.88 111.85,102.71 63.53,87.73 127.17,239.33 201.81,-231.38 323.07,-698.45 293.81,-995.73 -198.68,-2018.39 -67.84,-1201.24 -996.13,-2848.26 -202.7,-359.65 -338.52,-351.34 -718.32,-544.05 -1600.73,-812.2 -1150.72,-695.04 -3092.37,-827.4 173.45,1351.76 293.67,1956.86 765.37,3154.5 106.58,270.6 153.49,487.67 341.26,642.15l1394.71 1038.58c155.67,83.79 221.01,85.82 351.33,187.16z"/>
    <path class="fil1" d="M6184.18 9815.77c-66.39,147.67 3.63,63.63 -170.74,104.07 92.36,-91.71 -19.37,-47.24 170.74,-104.07zm-381.34 -227.2c132.47,-182.77 679.88,-370.75 760.92,-386.28 -134.76,152.49 -524.59,314.66 -760.92,386.28zm-80.1 -445.63l242.05 -263.47c89.7,-128.83 39.36,-159.4 176.02,-297.87l-418.07 561.34zm-900.34 -509.05c209.42,90.48 292.69,186.63 397.01,369.55 6.06,10.63 13.29,24.07 18.76,34.1l-415.77 -403.65zm-22.05 284.94c95.84,15.33 72.06,-16.83 162.97,102.89l72.67 114.17c-188.46,-86.33 -153.56,-67.86 -235.64,-217.06zm227.95 -601.84c153.85,38.47 146.98,45.09 202.44,228.2 -85.29,-58.3 -51.44,-23.23 -118.13,-100.37 -36.9,-42.67 -53.62,-74.19 -84.31,-127.83zm795.86 28.74c15.65,-109.28 36.6,-185.68 129.17,-277.6 58.96,-58.52 12.02,-12.2 96.06,-58.64 -40.32,105.7 -102.8,245.91 -225.23,336.24zm-304.77 -152.63c-0.38,-291.71 54.55,-198.02 42.37,-829.31 55.16,65.44 51.27,-66.09 77.19,191.96 23.23,231.35 -69,654.45 -94.1,600.15 -3.53,-7.64 -16.9,24.85 -25.46,37.2zm-205.65 -57.24c-134.87,-64.02 -46.92,36.74 -151.54,-116.11 -61.63,-90.07 -39.22,-74.15 -54.12,-170.06 117.1,70.22 134.63,139.82 205.66,286.17zm-753.22 963.55c310.36,143.29 556.88,369.62 900.66,489.01l-20.33 -815.65c88.82,205.38 75.42,694.51 18.54,863.23 389.74,139.76 417.76,376.51 614.78,572.46 8.34,8.29 20.17,18.34 28.09,25.75l61.18 50.92c92.75,-235.67 241.17,-518 358.98,-753.91 217.27,-435.02 136.92,-396.11 -27.74,-872.16 -131.15,-379.21 -128.62,-482.95 -346.05,-775.83 -98.19,-132.24 -412.05,-546.57 -520.47,-627.68 -244.62,179.82 -628.92,380.41 -760.85,667.83 -244.58,532.87 -308.92,489.27 -306.79,1176.03z"/>
    <path class="fil1" d="M7878.11 12013.76l-325.72 -8.15c13.59,-76.94 55.77,-86.02 153.84,-76.44 230.24,22.52 126.4,41.1 171.88,84.59zm-724.64 229.95c53.78,-184.3 149.15,-273.62 236.77,-395.01 126.39,-175.05 146.38,-236.9 293.21,-327.25l-110.11 185.63c-109.53,138.77 -292.35,438.6 -419.87,536.63zm968.05 -709.86c-40.49,35.27 40.36,63.01 -168.41,94.01 -319.78,47.49 -107.42,2.63 -187.28,-60.77l355.69 -33.24zm345.11 -65.83c-31.79,107.92 108.47,43.5 -124.05,84.39 63.51,-102.11 -25.33,-25.15 124.05,-84.39zm-1163.76 66.07c-15.38,-176.29 -38.51,-112.12 57.98,-206.51 18.61,39.73 34.74,-7.28 12.69,84.78 -41.92,174.98 -23.82,65.15 -70.67,121.73zm800.92 -276.27c180.33,-8.18 30.9,0.57 92.97,66.77l-195.82 -19.2c53.9,-37.89 -35.69,-41.28 102.85,-47.57zm-68.74 -63.68c22.57,-171.48 176.1,-239.03 189.32,-247.32l147.83 -81.97c116.98,-64.39 98.93,-53.48 197.14,-129.21 241.74,-186.41 127.66,31.12 182.2,-119.64 7.02,-19.41 27.35,-14.11 40.71,-21.72 -84.34,138.59 31.37,12.15 -94.1,127.7 -57.64,53.1 -51.66,33.11 -115.57,73.41 -57.48,36.25 -75.74,50.8 -110.79,75.36l-436.74 323.39zm-311.06 -152.02c87.2,-122.51 -154.97,-24.17 117.89,-142.42 -69.52,155.66 30.66,72.64 -117.89,142.42zm238.52 -449.51l-63.97 31.43c3.21,73.3 18.22,47.23 -62.77,63.85l-560.38 484.83c-120.84,90.91 -121.53,48.85 -166.98,214.62 -54.09,197.34 -151.09,1112.35 -148.07,1340.32 306.72,-181.17 -32.78,-127.63 662.39,-410.86 847.22,-345.17 1092.48,-944.52 1281.45,-1858.77l-816.66 61.29 -59.53 44.31c50.72,30.12 13.35,8.51 55.74,24.6 3.04,1.15 22.25,15.25 24.64,7.52 2.56,-8.27 17.74,4.8 32.84,10.22l-66.11 115.73c-49.7,-65.23 -46.83,-61.79 -112.59,-129.09z"/>
   </g>
   <rect class="fil1" x="4593.16" y="2490.85" width="232.38" height="3834.29"/>
   <rect class="fil1" x="39705.03" y="2021.12" width="232.38" height="9605.38"/>
  </g>
 </g>
</svg>
